<svg width="107" height="107" viewBox="0 0 107 107" fill="none" xmlns="http://www.w3.org/2000/svg">
<path d="M7.68239 3.83328C7.68239 5.95792 5.9589 7.66656 3.83425 7.66656C1.72447 7.68141 0.000976563 5.95792 0.000976563 3.83328C0.000976563 1.70863 1.72447 0 3.83425 0C5.9589 0 7.68239 1.72349 7.68239 3.83328Z" fill="#3943C7"/>
<path d="M27.4136 3.83371C27.4136 5.95835 25.6901 7.66698 23.5803 7.66698C21.4557 7.66698 19.7471 5.9435 19.7471 3.83371C19.7471 1.72392 21.4557 0.000427246 23.5803 0.000427246C25.705 0.000427246 27.4136 1.72392 27.4136 3.83371Z" fill="#3943C7"/>
<path d="M47.16 3.83371C47.16 5.95835 45.4365 7.66698 43.3267 7.66698C41.202 7.66698 39.4934 5.9435 39.4934 3.83371C39.4934 1.72392 41.202 0.000427246 43.3267 0.000427246C45.4365 0.000427246 47.16 1.72392 47.16 3.83371Z" fill="#3943C7"/>
<path d="M66.9051 3.83462C66.9051 5.95927 65.1816 7.6679 63.0718 7.6679C60.9472 7.6679 59.2385 5.94441 59.2385 3.83462C59.2385 1.72483 60.9323 0.00134277 63.0569 0.00134277C65.1816 0.00134277 66.9051 1.72483 66.9051 3.83462Z" fill="#3943C7"/>
<path d="M86.6368 3.83462C86.6368 5.95927 84.9133 7.6679 82.8035 7.6679C80.6788 7.6679 78.9702 5.94441 78.9702 3.83462C78.9702 1.72483 80.6788 0.00134277 82.8035 0.00134277C84.9281 0.00134277 86.6368 1.72483 86.6368 3.83462Z" fill="#3943C7"/>
<path d="M106.381 3.83371C106.381 5.95835 104.658 7.66698 102.548 7.66698C100.423 7.66698 98.7146 5.9435 98.7146 3.83371C98.7146 1.72392 100.423 0.000427246 102.533 0.000427246C104.658 0.000427246 106.381 1.72392 106.381 3.83371Z" fill="#3943C7"/>
<path d="M7.68239 23.5802C7.68239 25.7049 5.9589 27.4135 3.83425 27.4135C1.72447 27.4135 0.000976563 25.7049 0.000976563 23.5802C0.000976563 21.4556 1.72447 19.7469 3.83425 19.7469C5.9589 19.7469 7.68239 21.4556 7.68239 23.5802Z" fill="#3943C7"/>
<path d="M27.4139 23.5799C27.4139 25.7045 25.6904 27.4131 23.5806 27.4131C21.4559 27.4131 19.7473 25.6897 19.7473 23.5799C19.7473 21.4552 21.4708 19.7466 23.5806 19.7466C25.7052 19.7466 27.4139 21.4552 27.4139 23.5799Z" fill="#3943C7"/>
<path d="M47.16 23.5799C47.16 25.7045 45.4365 27.4131 43.3267 27.4131C41.202 27.4131 39.4934 25.6897 39.4934 23.5799C39.4934 21.4552 41.2169 19.7466 43.3267 19.7466C45.4365 19.7466 47.16 21.4552 47.16 23.5799Z" fill="#3943C7"/>
<path d="M66.9061 23.5799C66.9061 25.7045 65.1826 27.4131 63.0728 27.4131C60.9481 27.4131 59.2395 25.6897 59.2395 23.5799C59.2395 21.4552 60.963 19.7466 63.0728 19.7466C65.1826 19.7466 66.9061 21.4552 66.9061 23.5799Z" fill="#3943C7"/>
<path d="M86.6368 23.5799C86.6368 25.7045 84.9133 27.4131 82.8035 27.4131C80.6788 27.4131 78.9702 25.6897 78.9702 23.5799C78.9702 21.4552 80.6937 19.7466 82.8035 19.7466C84.9281 19.7466 86.6368 21.4552 86.6368 23.5799Z" fill="#3943C7"/>
<path d="M106.381 23.5799C106.381 25.7045 104.658 27.4131 102.548 27.4131C100.423 27.4131 98.7146 25.6897 98.7146 23.5799C98.7146 21.4552 100.438 19.7466 102.548 19.7466C104.658 19.7466 106.381 21.4552 106.381 23.5799Z" fill="#3943C7"/>
<path d="M7.68142 43.3256C7.68142 45.4502 5.95792 47.1588 3.83328 47.1588C1.72349 47.1588 0 45.4353 0 43.3256C0 41.2009 1.72349 39.4923 3.83328 39.4923C5.95792 39.4774 7.68142 41.2009 7.68142 43.3256Z" fill="#3943C7"/>
<path d="M27.4129 43.3253C27.4129 45.4499 25.6894 47.1585 23.5796 47.1585C21.455 47.1585 19.7463 45.435 19.7463 43.3253C19.7463 41.2006 21.4698 39.492 23.5796 39.492C25.7043 39.4771 27.4129 41.2006 27.4129 43.3253Z" fill="#3943C7"/>
<path d="M47.159 43.3253C47.159 45.4499 45.4355 47.1585 43.3257 47.1585C41.2011 47.1585 39.4924 45.435 39.4924 43.3253C39.4924 41.2006 41.2159 39.492 43.3257 39.492C45.4355 39.4771 47.159 41.2006 47.159 43.3253Z" fill="#3943C7"/>
<path d="M66.9051 43.3253C66.9051 45.4499 65.1816 47.1585 63.0718 47.1585C60.9472 47.1585 59.2385 45.435 59.2385 43.3253C59.2385 41.2006 60.962 39.492 63.0718 39.492C65.1816 39.4771 66.9051 41.2006 66.9051 43.3253Z" fill="#3943C7"/>
<path d="M86.6358 43.3253C86.6358 45.4499 84.9123 47.1585 82.8025 47.1585C80.6779 47.1585 78.9692 45.435 78.9692 43.3253C78.9692 41.2006 80.6927 39.492 82.8025 39.492C84.9272 39.4771 86.6358 41.2006 86.6358 43.3253Z" fill="#3943C7"/>
<path d="M106.381 43.3253C106.381 45.4499 104.658 47.1585 102.548 47.1585C100.423 47.1585 98.7146 45.435 98.7146 43.3253C98.7146 41.2006 100.438 39.492 102.548 39.492C104.658 39.4771 106.381 41.2006 106.381 43.3253Z" fill="#3943C7"/>
<path d="M7.68239 63.0572C7.68239 65.1818 5.9589 66.8904 3.83425 66.8904C1.72447 66.9053 0.000976563 65.1818 0.000976563 63.0572C0.000976563 60.9325 1.72447 59.2239 3.83425 59.2239C5.9589 59.2239 7.68239 60.9325 7.68239 63.0572Z" fill="#3943C7"/>
<path d="M27.4139 63.0567C27.4139 65.1814 25.6904 66.89 23.5806 66.89C21.4559 66.89 19.7473 65.1665 19.7473 63.0567C19.7473 60.9321 21.4708 59.2234 23.5806 59.2234C25.7052 59.2234 27.4139 60.9321 27.4139 63.0567Z" fill="#3943C7"/>
<path d="M47.16 63.0567C47.16 65.1814 45.4365 66.89 43.3267 66.89C41.202 66.89 39.4934 65.1665 39.4934 63.0567C39.4934 60.9321 41.2169 59.2234 43.3267 59.2234C45.4365 59.2234 47.16 60.9321 47.16 63.0567Z" fill="#3943C7"/>
<path d="M66.9061 63.0567C66.9061 65.1814 65.1826 66.89 63.0728 66.89C60.9481 66.89 59.2395 65.1665 59.2395 63.0567C59.2395 60.9321 60.963 59.2234 63.0728 59.2234C65.1826 59.2234 66.9061 60.9321 66.9061 63.0567Z" fill="#3943C7"/>
<path d="M86.6368 63.0567C86.6368 65.1814 84.9133 66.89 82.8035 66.89C80.6788 66.89 78.9702 65.1665 78.9702 63.0567C78.9702 60.9321 80.6937 59.2234 82.8035 59.2234C84.9281 59.2234 86.6368 60.9321 86.6368 63.0567Z" fill="#3943C7"/>
<path d="M106.382 63.0567C106.382 65.1814 104.659 66.89 102.549 66.89C100.424 66.89 98.7156 65.1665 98.7156 63.0567C98.7156 60.9321 100.439 59.2234 102.549 59.2234C104.659 59.2234 106.382 60.9321 106.382 63.0567Z" fill="#3943C7"/>
<path d="M7.68239 82.8025C7.68239 84.9272 5.9589 86.6358 3.83425 86.6358C1.72447 86.6358 0.000976563 84.9123 0.000976563 82.8025C0.000976563 80.6779 1.72447 78.9693 3.83425 78.9693C5.9589 78.9544 7.68239 80.6779 7.68239 82.8025Z" fill="#3943C7"/>
<path d="M27.4139 82.8022C27.4139 84.9268 25.6904 86.6355 23.5806 86.6355C21.4559 86.6355 19.7473 84.912 19.7473 82.8022C19.7473 80.6775 21.4708 78.9689 23.5806 78.9689C25.7052 78.954 27.4139 80.6775 27.4139 82.8022Z" fill="#3943C7"/>
<path d="M47.16 82.8022C47.16 84.9268 45.4365 86.6355 43.3267 86.6355C41.202 86.6355 39.4934 84.912 39.4934 82.8022C39.4934 80.6775 41.2169 78.9689 43.3267 78.9689C45.4365 78.954 47.16 80.6775 47.16 82.8022Z" fill="#3943C7"/>
<path d="M66.9051 82.8022C66.9051 84.9268 65.1816 86.6355 63.0718 86.6355C60.9472 86.6355 59.2385 84.912 59.2385 82.8022C59.2385 80.6775 60.962 78.9689 63.0718 78.9689C65.1816 78.954 66.9051 80.6775 66.9051 82.8022Z" fill="#3943C7"/>
<path d="M86.6368 82.8022C86.6368 84.9268 84.9133 86.6355 82.8035 86.6355C80.6788 86.6355 78.9702 84.912 78.9702 82.8022C78.9702 80.6775 80.6937 78.9689 82.8035 78.9689C84.9281 78.954 86.6368 80.6775 86.6368 82.8022Z" fill="#3943C7"/>
<path d="M106.381 82.8022C106.381 84.9268 104.658 86.6355 102.548 86.6355C100.423 86.6355 98.7146 84.912 98.7146 82.8022C98.7146 80.6775 100.438 78.9689 102.548 78.9689C104.658 78.954 106.381 80.6775 106.381 82.8022Z" fill="#3943C7"/>
<path d="M7.68142 102.535C7.68142 104.659 5.95792 106.368 3.83328 106.368C1.72349 106.383 0 104.659 0 102.535C0 100.41 1.72349 98.7014 3.83328 98.7014C5.95792 98.7014 7.68142 100.425 7.68142 102.535Z" fill="#3943C7"/>
<path d="M27.4129 102.534C27.4129 104.658 25.6894 106.367 23.5796 106.367C21.455 106.367 19.7463 104.643 19.7463 102.534C19.7463 100.409 21.4698 98.7004 23.5796 98.7004C25.7043 98.7004 27.4129 100.424 27.4129 102.534Z" fill="#3943C7"/>
<path d="M47.159 102.534C47.159 104.658 45.4355 106.367 43.3257 106.367C41.2011 106.367 39.4924 104.643 39.4924 102.534C39.4924 100.409 41.2159 98.7004 43.3257 98.7004C45.4355 98.7004 47.159 100.424 47.159 102.534Z" fill="#3943C7"/>
<path d="M66.9051 102.534C66.9051 104.658 65.1816 106.367 63.0718 106.367C60.9472 106.367 59.2385 104.643 59.2385 102.534C59.2385 100.409 60.962 98.7004 63.0718 98.7004C65.1816 98.7004 66.9051 100.424 66.9051 102.534Z" fill="#3943C7"/>
<path d="M86.6358 102.534C86.6358 104.658 84.9123 106.367 82.8025 106.367C80.6779 106.367 78.9692 104.643 78.9692 102.534C78.9692 100.409 80.6927 98.7004 82.8025 98.7004C84.9272 98.7004 86.6358 100.424 86.6358 102.534Z" fill="#3943C7"/>
<path d="M106.381 102.534C106.381 104.658 104.658 106.367 102.548 106.367C100.423 106.367 98.7146 104.643 98.7146 102.534C98.7146 100.409 100.438 98.7004 102.548 98.7004C104.658 98.7004 106.381 100.424 106.381 102.534Z" fill="#3943C7"/>
</svg>
