<svg width="108" height="108" viewBox="0 0 108 108" fill="none" xmlns="http://www.w3.org/2000/svg">
<path fill-rule="evenodd" clip-rule="evenodd" d="M39.2347 0C33.3194 0.00436331 28.532 4.79528 28.5364 10.6988C28.532 16.6024 33.3237 21.3933 39.2391 21.3977H49.9419V10.7032C49.9463 4.79964 45.1545 0.00872662 39.2347 0C39.2391 0 39.2391 0 39.2347 0V0ZM39.2347 28.536H10.7028C4.7874 28.5404 -0.0043601 33.3313 1.19483e-05 39.2349C-0.00873214 45.1384 4.78303 49.9294 10.6984 49.9381H39.2347C45.1501 49.9337 49.9419 45.1428 49.9375 39.2392C49.9419 33.3313 45.1501 28.5404 39.2347 28.536Z" fill="#36C5F0"/>
<path fill-rule="evenodd" clip-rule="evenodd" d="M107.011 39.2349C107.015 33.3313 102.223 28.5404 96.3081 28.536C90.3927 28.5404 85.601 33.3313 85.6053 39.2349V49.9381H96.3081C102.223 49.9337 107.015 45.1428 107.011 39.2349ZM78.4745 39.2349V10.6988C78.4789 4.79964 73.6915 0.00872662 67.7761 0C61.8608 0.00436331 57.069 4.79528 57.0734 10.6988V39.2349C57.0646 45.1384 61.8564 49.9294 67.7718 49.9381C73.6871 49.9337 78.4789 45.1428 78.4745 39.2349Z" fill="#2EB67D"/>
<path fill-rule="evenodd" clip-rule="evenodd" d="M67.7723 107.01C73.6877 107.005 78.4795 102.215 78.4751 96.311C78.4795 90.4075 73.6877 85.6165 67.7723 85.6122H57.0696V96.311C57.0652 102.21 61.857 107.001 67.7723 107.01ZM67.7723 78.4694H96.3086C102.224 78.4651 107.016 73.6741 107.011 67.7706C107.02 61.867 102.228 57.0761 96.313 57.0674H67.7767C61.8613 57.0717 57.0696 61.8627 57.074 67.7662C57.0696 73.6741 61.857 78.4651 67.7723 78.4694Z" fill="#ECB22E"/>
<path fill-rule="evenodd" clip-rule="evenodd" d="M2.98944e-06 67.7701C-0.00436906 73.6737 4.78739 78.4646 10.7028 78.469C16.6181 78.4646 21.4099 73.6737 21.4055 67.7701V57.0713H10.7028C4.78739 57.0757 -0.00436906 61.8666 2.98944e-06 67.7701ZM28.5363 67.7701V96.3062C28.5276 102.21 33.3194 107.001 39.2347 107.009C45.1501 107.005 49.9419 102.214 49.9375 96.3106V67.7789C49.9463 61.8753 45.1545 57.0844 39.2391 57.0757C33.3194 57.0757 28.532 61.8666 28.5363 67.7701C28.5363 67.7701 28.5363 67.7745 28.5363 67.7701Z" fill="#E01E5A"/>
</svg>
