<svg width="72" height="108" viewBox="0 0 72 108" fill="none" xmlns="http://www.w3.org/2000/svg">
<path d="M17.8342 107.006C27.6787 107.006 35.6685 99.0166 35.6685 89.1721V71.3379H17.8342C7.98974 71.3379 0 79.3276 0 89.1721C0 99.0166 7.98974 107.006 17.8342 107.006Z" fill="#0ACF83"/>
<path d="M0 53.5042C0 43.6597 7.98974 35.6699 17.8342 35.6699H35.6685V71.3384H17.8342C7.98974 71.3384 0 63.3487 0 53.5042Z" fill="#A259FF"/>
<path d="M0 17.8342C0 7.98974 7.98974 0 17.8342 0H35.6685V35.6685H17.8342C7.98974 35.6685 0 27.6787 0 17.8342Z" fill="#F24E1E"/>
<path d="M35.6665 0H53.5007C63.3452 0 71.335 7.98974 71.335 17.8342C71.335 27.6787 63.3452 35.6685 53.5007 35.6685H35.6665V0Z" fill="#FF7262"/>
<path d="M71.335 53.5042C71.335 63.3487 63.3452 71.3384 53.5007 71.3384C43.6562 71.3384 35.6665 63.3487 35.6665 53.5042C35.6665 43.6597 43.6562 35.6699 53.5007 35.6699C63.3452 35.6699 71.335 43.6597 71.335 53.5042Z" fill="#1ABCFE"/>
</svg>
