<svg width="110" height="108" viewBox="0 0 110 108" fill="none" xmlns="http://www.w3.org/2000/svg">
<path d="M4.56641 4.57227H105.015V102.436H4.56641V4.57227Z" fill="url(#paint0_radial)"/>
<path d="M4.56578 4.57301H105.014V102.437H4.56578V4.57301ZM0 107.01H109.58V0H0V107.01ZM71.7749 38.1394C71.7749 37.7736 71.9119 37.5905 72.3229 37.5905H79.4912C79.8563 37.5905 80.0391 37.7277 80.0391 38.1394V74.2211C80.0391 74.5867 79.9478 74.7698 79.4912 74.7698H72.4142C71.9577 74.7698 71.8206 74.5411 71.8206 74.1753V38.1394H71.7749ZM71.2727 27.7585C71.2727 24.8317 73.3273 23.094 75.93 23.094C78.7152 23.094 80.5871 24.9689 80.5871 27.7585C80.5871 30.7767 78.6239 32.4229 75.8387 32.4229C73.1903 32.4231 71.2727 30.7767 71.2727 27.7585ZM50.7265 53.1848C49.4482 48.1087 46.4348 37.0419 45.2931 31.6913H45.2018C44.2429 37.0419 41.8232 46.0964 39.9056 53.1848H50.7265ZM38.0335 60.5933L34.4264 74.3125C34.3351 74.6781 34.1981 74.7696 33.7416 74.7696H27.0298C26.5733 74.7696 26.4818 74.6324 26.5733 74.0837L39.5402 28.6273C39.7684 27.8042 39.9054 27.0724 39.9967 24.8317C39.9967 24.5117 40.1337 24.3745 40.3619 24.3745H49.9502C50.2698 24.3745 50.4067 24.466 50.4982 24.8317L65.0175 74.1752C65.1088 74.5408 65.0175 74.7696 64.6522 74.7696H57.0729C56.7076 74.7696 56.4792 74.6781 56.3881 74.3582L52.644 60.5933H38.0335Z" fill="#FF7F18"/>
<defs>
<radialGradient id="paint0_radial" cx="0" cy="0" r="1" gradientUnits="userSpaceOnUse" gradientTransform="translate(37.6493 26.5036) scale(76.3409 74.0289)">
<stop stop-color="#423325" stop-opacity="0.98"/>
<stop offset="1" stop-color="#1C0A00"/>
</radialGradient>
</defs>
</svg>
