<svg width="110" height="108" viewBox="0 0 110 108" fill="none" xmlns="http://www.w3.org/2000/svg">
<path d="M4.57788 4.57227H105.272V102.436H4.57788V4.57227Z" fill="url(#paint0_radial)"/>
<path d="M4.57695 4.57301H105.271V102.437H4.57695V4.57301ZM0 107.01H109.848V0H0V107.01ZM74.0561 43.9015C70.4402 43.9015 69.2046 45.7306 69.2046 47.2397C69.2046 48.886 70.0283 50.0293 74.8801 52.5445C82.0659 56.0201 84.3087 59.3584 84.3087 64.2516C84.3087 71.5685 78.7248 75.5014 71.1726 75.5014C67.1906 75.5014 63.7578 74.6781 61.7897 73.535C61.4694 73.3978 61.4236 73.1692 61.4236 72.8032V66.0808C61.4236 65.6236 61.6524 65.4862 61.973 65.715C64.8565 67.5901 68.1518 68.4131 71.1726 68.4131C74.7885 68.4131 76.2989 66.904 76.2989 64.8461C76.2989 63.1998 75.2462 61.7364 70.6233 59.3584C64.1239 56.2487 61.4236 53.0934 61.4236 47.8343C61.4236 41.9349 66.0465 37.0419 74.0561 37.0419C77.9924 37.0419 80.7386 37.6365 82.249 38.3223C82.6151 38.5509 82.7066 38.9168 82.7066 39.2368V45.5018C82.7066 45.8676 82.4778 46.0964 82.02 45.9591C80.0062 44.679 77.0312 43.9015 74.0561 43.9015ZM34.6937 49.3434C35.7465 49.4349 36.5704 49.4349 38.4012 49.4349C43.7565 49.4349 48.7911 47.56 48.7911 40.2889C48.7911 34.4811 45.1752 31.5542 39.0878 31.5542C37.2571 31.5542 35.5177 31.6456 34.6937 31.6913V49.3434ZM26.5468 25.0604C26.5468 24.7403 27.1877 24.5115 27.5536 24.5115C30.4831 24.3743 34.8312 24.2829 39.3624 24.2829C52.0407 24.2829 56.9838 31.2339 56.9838 40.1058C56.9838 51.7213 48.5621 56.706 38.2181 56.706C36.4789 56.706 35.884 56.6145 34.648 56.6145V74.1752C34.648 74.541 34.5107 74.7239 34.0988 74.7239H27.096C26.7299 74.7239 26.5466 74.5867 26.5466 74.1752V25.0604H26.5468Z" fill="#31C5F0"/>
<defs>
<radialGradient id="paint0_radial" cx="0" cy="0" r="1" gradientUnits="userSpaceOnUse" gradientTransform="translate(37.7417 26.5036) scale(76.5277 74.0289)">
<stop stop-color="#34364E" stop-opacity="0.98"/>
<stop offset="1" stop-color="#0C0824"/>
</radialGradient>
</defs>
</svg>
