<svg width="498" height="542" viewBox="0 0 498 542" fill="none" xmlns="http://www.w3.org/2000/svg">
<path d="M478.58 282.131C486.081 295.615 496.988 308.33 497.932 323.532C499.446 347.949 475.37 366.359 465.526 388.988C453.436 416.764 463.575 449.49 452.878 477.77C445.126 498.263 426.111 514.631 403.766 520.049C387.019 524.109 369.404 522.274 352.114 522.441C303.026 522.915 254.125 539.699 205.704 532.079C181.793 528.315 159.19 518.712 135.17 515.63C106.367 511.936 72.8029 516.405 52.2227 497.047C23.4648 470.005 44.8143 420.282 23.232 387.839C16.2824 377.392 5.08674 369.218 1.3334 357.403C-3.05266 343.597 4.05293 328.885 12.8759 317.116C21.6988 305.347 32.6154 294.509 37.3935 280.818C41.7321 268.388 39.0826 254.876 33.7453 242.795C25.5686 224.287 48.3282 181.85 93.4745 185.035C114.166 186.489 123.481 162.786 146.179 156.216C172.173 148.693 204.805 154.741 223.958 161.035C243.418 167.431 267.474 170.792 278.63 154.451C294.379 131.381 341.33 127.77 362.413 165.236C370.114 178.922 376.971 189.569 393.36 188.525C482.187 182.865 467.426 262.091 478.58 282.131ZM236.466 155.544C236.466 158.686 236.466 164.077 250.477 163.196C254.77 162.926 258.273 160.649 258.273 157.507C258.273 154.365 254.781 151.817 250.477 151.817C246.172 151.817 236.466 150.523 236.466 155.544ZM98.4774 170.788C98.0808 171.072 97.7626 171.451 97.5521 171.888C96.5284 173.247 95.1038 174.259 93.4745 174.784C92.5072 175.056 91.6079 175.525 90.834 176.16C90.5744 176.441 90.3749 176.772 90.2477 177.131C90.1204 177.49 90.068 177.871 90.0937 178.251C90.1193 178.631 90.2225 179.002 90.3969 179.341C90.5713 179.681 90.8134 179.982 91.1086 180.226C92.2136 180.919 93.5316 181.203 94.828 181.026C99.7016 180.785 104.38 179.055 108.217 176.074C113.146 172.203 101.189 169.336 98.4774 170.788ZM85.1871 178.028C83.5454 176.964 81.4281 177.581 79.7943 178.409C79.6107 178.48 79.4433 178.587 79.3022 178.723C79.1611 178.859 79.0491 179.022 78.9729 179.201C78.7583 179.966 79.7356 180.508 80.531 180.753C81.7388 181.259 83.0753 181.381 84.3566 181.105C85.5893 180.7 86.8287 179.091 85.1871 178.028ZM23.2343 278.198C22.0209 274.536 19.1511 272.715 14.8091 274.801C12.3308 276.198 10.2778 278.228 8.86494 280.679C6.36573 284.426 4.21676 288.708 4.74214 293.107C4.95705 294.733 5.51556 296.296 6.38137 297.695C7.24719 299.094 8.40094 300.297 9.76769 301.227C10.8866 302.068 12.2469 302.535 13.6521 302.562C15.1824 302.406 16.6252 301.781 17.7783 300.774C20.4892 298.505 22.8892 295.895 24.9178 293.012C26.1493 291.675 27.0013 290.04 27.3876 288.272C27.8396 284.517 24.3517 281.568 23.2343 278.198ZM477.402 391.02C476.264 391.379 475.26 392.068 474.523 392.998C474.081 393.782 473.83 394.657 473.792 395.553C473.585 397.397 473.48 399.25 473.477 401.105C473.477 403.135 473.703 405.387 475.275 406.768C477.4 408.63 480.775 407.978 483.559 407.21C485.162 406.933 486.643 406.186 487.81 405.064C488.478 404.135 488.894 403.051 489.02 401.917C489.697 398.213 491.757 392.598 489.471 390.68C487.186 388.762 481.385 389.414 477.402 391.02ZM320.495 534.497C319.913 534.997 319.425 535.596 319.055 536.264C318.842 536.734 318.726 537.241 318.713 537.756C318.7 538.271 318.791 538.783 318.979 539.262C319.168 539.742 319.451 540.18 319.811 540.551C320.172 540.922 320.604 541.219 321.082 541.424C322.121 541.76 323.217 541.889 324.306 541.804C333.65 541.68 343.696 541.341 351.159 536.039C352.07 535.392 353.012 534.484 352.854 533.419C352.659 532.131 351.046 531.573 349.69 531.315C340.344 529.531 328.003 527.538 320.495 534.497ZM143.121 520.233C134.993 519.15 122.069 517.616 122.072 524.116C122.072 526.574 133.541 528.93 135.438 529.382C141.243 530.904 146.953 532.762 152.537 534.946C163.177 538.833 171.698 533.597 163.271 527.728C157.3 523.59 150.369 521.012 143.121 520.233Z" fill="#6666FF"/>
<path d="M248.911 460.207C354.541 460.207 440.171 442.979 440.171 421.727C440.171 400.476 354.541 383.248 248.911 383.248C143.281 383.248 57.6504 400.476 57.6504 421.727C57.6504 442.979 143.281 460.207 248.911 460.207Z" fill="#68CCE9"/>
<path d="M157.225 415.544C159.909 406.839 168.126 402.202 181.468 398.297C189.928 395.857 200.667 394.718 217.507 391.301C225.724 389.674 231.5 386.42 231.5 386.42V395.775C231.5 395.775 175.773 406.758 167.068 421.157C162.838 428.235 164.14 445.563 184.071 447.353C177.969 448.248 167.963 446.702 162.594 441.252C155.923 434.499 154.133 425.469 157.225 415.544Z" fill="#0D0D0D" stroke="#0D0D0D" stroke-width="4" stroke-miterlimit="10" stroke-linecap="round" stroke-linejoin="round"/>
<path d="M231.503 395.774C231.503 395.774 198.148 401.956 180.332 409.604C164.712 416.356 165.2 423.352 164.793 430.511C164.549 434.66 167.478 444.911 179.355 446.701C193.511 448.816 210.188 446.538 231.503 432.952C231.503 399.679 231.503 395.774 231.503 395.774Z" fill="#442C2A"/>
<path d="M164.793 430.513C165.119 424.737 164.875 419.042 173.01 413.51C172.685 415.544 172.603 417.496 172.522 419.53C172.278 423.679 182.284 418.31 194.162 420.018C206.527 421.889 213.849 436.045 231.503 426.527C231.503 428.56 231.503 430.676 231.503 432.872C210.188 446.458 193.511 448.655 179.355 446.621C167.478 444.912 164.549 434.58 164.793 430.513Z" fill="#0D0D0D"/>
<path d="M231.503 395.774C231.503 395.774 198.148 401.956 180.332 409.604C164.712 416.356 165.2 423.352 164.793 430.511C164.549 434.66 167.478 444.911 179.355 446.7C193.511 448.816 210.188 446.538 231.503 432.952C231.503 399.679 231.503 395.774 231.503 395.774Z" stroke="black" stroke-width="4" stroke-miterlimit="10" stroke-linecap="round" stroke-linejoin="round"/>
<path d="M200.587 414.891C197.902 416.356 198.553 430.593 205.061 432.545" stroke="black" stroke-width="4" stroke-miterlimit="10" stroke-linecap="round" stroke-linejoin="round"/>
<path d="M210.755 413.838C207.989 417.743 209.942 426.936 214.904 429.213" stroke="black" stroke-width="4" stroke-miterlimit="10" stroke-linecap="round" stroke-linejoin="round"/>
<path d="M220.11 410.581C217.344 414.486 219.297 423.679 224.259 425.957" stroke="black" stroke-width="4" stroke-miterlimit="10" stroke-linecap="round" stroke-linejoin="round"/>
<path d="M316.108 368.441C298.536 380.644 273.561 387.64 247.446 387.64C221.413 387.64 196.357 380.644 178.785 368.441C170.731 362.828 157.226 351.113 157.226 335.493C157.226 319.873 170.731 308.159 178.785 302.545C196.357 290.342 221.332 283.346 247.446 283.346C273.479 283.346 298.536 290.342 316.108 302.545C324.162 308.159 337.666 319.873 337.666 335.493C337.666 351.113 324.162 362.828 316.108 368.441Z" fill="#6666FF"/>
<path d="M396.567 348.51C396.242 350.137 395.916 351.682 395.428 353.309C382.737 399.599 321.56 434.743 247.936 434.743C174.149 434.743 112.809 399.436 100.362 352.984C100.036 351.682 99.7108 350.381 99.4667 349.079C99.1413 346.638 99.2227 344.198 99.7108 341.757C102.721 328.09 119.317 320.199 136.808 324.104C148.278 326.626 157.227 333.703 161.213 342.083C161.62 343.872 162.271 345.662 163.003 347.371C167.234 357.133 175.694 364.455 181.389 368.522C198.392 380.725 222.716 387.722 247.936 387.722C273.236 387.722 297.479 380.725 314.482 368.522C320.258 364.373 328.8 356.97 332.949 347.208C333.6 345.662 334.169 343.954 334.576 342.327C338.481 333.866 347.511 326.788 359.063 324.185C376.554 320.28 393.15 328.253 396.16 341.839C396.73 343.954 396.811 346.232 396.567 348.51Z" fill="#6666FF"/>
<path opacity="0.67" d="M396.157 341.677C396.075 341.271 395.994 340.945 395.831 340.538C395.587 341.84 395.262 343.223 394.855 344.525C382.327 390.814 321.068 425.959 247.525 425.959C173.738 425.959 112.398 390.652 99.9511 344.199C99.7884 343.711 99.7071 343.223 99.5444 342.653C99.219 344.769 99.1376 346.884 99.463 348.918C99.7071 350.219 100.032 351.521 100.358 352.823C112.805 399.275 174.145 434.582 247.932 434.582C321.556 434.582 382.733 399.438 395.424 353.148C395.831 351.602 396.238 349.975 396.563 348.348C396.807 346.233 396.726 343.955 396.157 341.677Z" fill="#3943C7"/>
<path d="M396.567 348.51C396.242 350.137 395.916 351.682 395.428 353.309C382.737 399.599 321.56 434.743 247.936 434.743C174.149 434.743 112.809 399.436 100.362 352.984C100.036 351.682 99.7108 350.381 99.4667 349.079C99.1413 346.638 99.2227 344.198 99.7108 341.757C102.721 328.09 119.317 320.199 136.808 324.104C148.278 326.626 157.227 333.703 161.213 342.083C161.62 343.872 162.271 345.662 163.003 347.371C167.234 357.133 175.694 364.455 181.389 368.522C198.392 380.725 222.716 387.722 247.936 387.722C273.236 387.722 297.479 380.725 314.482 368.522C320.258 364.373 328.8 356.97 332.949 347.208C333.6 345.662 334.169 343.954 334.576 342.327C338.481 333.866 347.511 326.788 359.063 324.185C376.554 320.28 393.15 328.253 396.16 341.839C396.73 343.954 396.811 346.232 396.567 348.51Z" stroke="black" stroke-width="4" stroke-miterlimit="10" stroke-linecap="round" stroke-linejoin="round"/>
<path d="M248.912 362.829C289.393 362.829 322.21 351.683 322.21 337.935C322.21 324.186 289.393 313.041 248.912 313.041C208.43 313.041 175.613 324.186 175.613 337.935C175.613 351.683 208.43 362.829 248.912 362.829Z" fill="white"/>
<path d="M248.912 362.829C289.393 362.829 322.21 351.683 322.21 337.935C322.21 324.186 289.393 313.041 248.912 313.041C208.43 313.041 175.613 324.186 175.613 337.935C175.613 351.683 208.43 362.829 248.912 362.829Z" stroke="black" stroke-width="4" stroke-miterlimit="10" stroke-linecap="round" stroke-linejoin="round"/>
<path d="M332.378 283.59H163.489C150.554 283.59 140.548 272.282 142.175 259.428L149.659 199.634C151.775 182.55 166.255 169.777 183.502 169.777H312.528C329.693 169.777 344.174 182.55 346.37 199.634L353.855 259.428C355.319 272.282 345.313 283.59 332.378 283.59Z" fill="#F1534D"/>
<path d="M332.378 283.59H163.489C150.554 283.59 140.548 272.282 142.175 259.428L149.659 199.634C151.775 182.55 166.255 169.777 183.502 169.777H312.528C329.693 169.777 344.174 182.55 346.37 199.634L353.855 259.428C355.319 272.282 345.313 283.59 332.378 283.59Z" stroke="black" stroke-width="4" stroke-miterlimit="10" stroke-linecap="round" stroke-linejoin="round"/>
<path d="M181.796 220.296L180.169 240.716" stroke="black" stroke-width="4" stroke-miterlimit="10" stroke-linecap="round" stroke-linejoin="round"/>
<path d="M315.299 220.295L316.926 240.714" stroke="black" stroke-width="4" stroke-miterlimit="10" stroke-linecap="round" stroke-linejoin="round"/>
<path d="M332.383 283.59H163.494C150.559 283.59 140.553 272.281 142.18 259.428L149.664 199.633C151.78 182.549 166.26 169.777 183.507 169.777H312.533C329.698 169.777 344.179 182.549 346.375 199.633L353.86 259.428C355.324 272.281 345.318 283.59 332.383 283.59Z" fill="white"/>
<g opacity="0.24">
<path opacity="0.24" d="M149.581 205.979C151.696 188.895 166.177 176.122 183.424 176.122H312.449C329.614 176.122 344.095 188.895 346.292 205.979L353.695 265.285C353.939 263.414 354.02 261.462 353.776 259.428L346.292 199.633C344.177 182.549 329.696 169.777 312.449 169.777H183.424C166.258 169.777 151.777 182.549 149.581 199.633L142.096 259.428C141.852 261.38 141.852 263.333 142.178 265.285L149.581 205.979Z" fill="#9B2121"/>
<path opacity="0.24" d="M190.909 176.122C190.909 176.122 200.915 177.912 201.729 183.444C202.38 187.919 202.298 190.847 204.007 192.637C205.715 194.427 209.701 198.088 217.755 198.088C213.281 193.613 213.2 177.912 211.979 177.912C210.84 177.912 207.912 170.102 207.912 170.102L204.007 168.312C204.088 168.313 189.689 170.102 190.909 176.122Z" fill="#9B2121"/>
<path opacity="0.24" d="M297.804 176.122C297.804 176.122 287.798 177.912 286.984 183.444C286.333 187.919 286.415 190.847 284.706 192.637C282.998 194.345 279.011 198.088 270.958 198.088C275.432 193.613 275.513 177.912 276.734 177.912C277.873 177.912 280.801 170.102 280.801 170.102L284.706 168.312C284.625 168.313 299.024 170.102 297.804 176.122Z" fill="#9B2121"/>
</g>
<path d="M332.383 283.59H163.494C150.559 283.59 140.553 272.281 142.18 259.428L149.664 199.633C151.78 182.549 166.26 169.777 183.507 169.777H312.533C329.698 169.777 344.179 182.549 346.375 199.633L353.86 259.428C355.324 272.281 345.318 283.59 332.383 283.59Z" stroke="black" stroke-width="4" stroke-miterlimit="10" stroke-linecap="round" stroke-linejoin="round"/>
<path d="M181.799 220.295L180.172 240.715" stroke="black" stroke-width="4" stroke-miterlimit="10" stroke-linecap="round" stroke-linejoin="round"/>
<path d="M315.302 220.297L316.929 240.717" stroke="black" stroke-width="4" stroke-miterlimit="10" stroke-linecap="round" stroke-linejoin="round"/>
<path d="M226.218 135.774L199.453 134.391L186.925 135.774C186.925 135.774 178.545 142.039 178.545 143.747C178.545 145.455 179.359 159.367 179.359 159.367C179.359 159.367 199.128 162.051 201.243 164.085C203.358 166.119 215.886 177.834 215.886 177.834L228.008 173.115L234.353 156.194L226.218 135.774Z" fill="white"/>
<path d="M221.498 125.444H190.584C178.137 125.444 167.968 135.532 167.968 148.06C167.968 160.507 178.056 170.676 190.584 170.676H194.651C201.241 170.676 206.529 175.964 206.529 182.554V183.774C206.529 191.665 212.956 198.092 220.847 198.092V183.449C221.01 183.449 221.172 183.612 221.172 183.774V182.554C221.172 167.91 209.295 156.033 194.651 156.033H190.584C186.191 156.033 182.611 152.453 182.611 148.06C182.611 143.667 186.191 140.088 190.584 140.088H221.498V125.444Z" fill="#6666FF"/>
<path d="M219.631 173.358C215.889 163.27 206.127 155.949 194.737 155.949H190.67C186.277 155.949 182.697 152.369 182.697 147.976C182.697 143.583 186.277 140.003 190.67 140.003H221.584V125.36H190.67C178.223 125.36 168.054 135.448 168.054 147.976C168.054 160.423 178.141 170.592 190.67 170.592H194.737C201.327 170.592 206.615 175.88 206.615 182.47V183.69C206.615 191.581 213.042 198.008 220.933 198.008" stroke="#6666FF" stroke-width="4" stroke-miterlimit="10" stroke-linecap="round" stroke-linejoin="round"/>
<path d="M261.598 135.774L288.364 134.391L300.892 135.774C300.892 135.774 309.271 142.039 309.271 143.747C309.271 145.455 308.458 159.367 308.458 159.367C308.458 159.367 288.689 162.051 286.574 164.085C284.459 166.2 271.93 177.834 271.93 177.834L259.809 173.115L253.463 156.194L261.598 135.774Z" fill="white"/>
<path d="M266.317 125.44H297.231C309.678 125.44 319.847 135.528 319.847 148.056C319.847 160.503 309.759 170.672 297.231 170.672H293.163C286.574 170.672 281.286 175.96 281.286 182.55V183.77C281.286 191.661 274.859 198.088 266.968 198.088V183.444C266.805 183.444 266.642 183.607 266.642 183.77V182.55C266.642 167.906 278.52 156.029 293.163 156.029H297.231C301.624 156.029 305.204 152.449 305.204 148.056C305.204 143.663 301.624 140.083 297.231 140.083H266.317V125.44Z" fill="#6666FF"/>
<path d="M268.27 173.358C272.012 163.27 281.774 155.949 293.163 155.949H297.231C301.624 155.949 305.204 152.369 305.204 147.976C305.204 143.583 301.624 140.003 297.231 140.003H266.317V125.36H297.231C309.678 125.36 319.847 135.448 319.847 147.976C319.847 160.423 309.759 170.592 297.231 170.592H293.163C286.574 170.592 281.286 175.88 281.286 182.47V183.69C281.286 191.581 274.859 198.008 266.968 198.008" stroke="#6666FF" stroke-width="4" stroke-miterlimit="10" stroke-linecap="round" stroke-linejoin="round"/>
<path d="M245.415 186.538C262.937 186.538 277.142 172.333 277.142 154.811C277.142 137.288 262.937 123.083 245.415 123.083C227.892 123.083 213.687 137.288 213.687 154.811C213.687 172.333 227.892 186.538 245.415 186.538Z" fill="#6666FF"/>
<path d="M215.067 145.453C223.853 151.067 234.266 154.402 245.411 154.402C256.557 154.402 266.97 151.148 275.756 145.453C271.77 132.437 259.73 123 245.411 123C231.175 123.081 219.053 132.518 215.067 145.453Z" fill="#3943C7"/>
<path d="M245.415 186.538C262.937 186.538 277.142 172.333 277.142 154.811C277.142 137.288 262.937 123.083 245.415 123.083C227.892 123.083 213.687 137.288 213.687 154.811C213.687 172.333 227.892 186.538 245.415 186.538Z" stroke="#6666FF" stroke-width="4" stroke-miterlimit="10" stroke-linecap="round" stroke-linejoin="round"/>
<path d="M245.415 173.195C235.083 173.195 226.703 164.816 226.703 154.484V140.492C226.703 137.888 228.819 135.773 231.422 135.773H259.489C262.092 135.773 264.207 137.888 264.207 140.492V154.484C264.126 164.816 255.746 173.195 245.415 173.195Z" fill="#FFC897"/>
<path d="M259.489 135.773H231.422C228.819 135.773 226.703 138.051 226.703 140.817V152.288C232.561 154.484 238.825 155.705 245.415 155.705C252.004 155.705 258.268 154.484 264.126 152.288V140.817C264.126 138.051 262.01 135.773 259.489 135.773Z" fill="#E5A973"/>
<path d="M245.415 173.195C235.083 173.195 226.703 164.816 226.703 154.484V140.492C226.703 137.888 228.819 135.773 231.422 135.773H259.489C262.092 135.773 264.207 137.888 264.207 140.492V154.484C264.126 164.816 255.746 173.195 245.415 173.195Z" stroke="black" stroke-width="4" stroke-miterlimit="10" stroke-linecap="round" stroke-linejoin="round"/>
<path d="M265.672 383.983H248.263V439.547H265.672V383.983Z" fill="#6666FF"/>
<path d="M265.672 383.983H248.263V439.547H265.672V383.983Z" stroke="black" stroke-width="4" stroke-miterlimit="10" stroke-linecap="round" stroke-linejoin="round"/>
<path d="M162.921 347.211C162.189 345.502 161.62 343.794 161.132 341.923C162.026 343.713 162.596 345.421 162.921 347.211Z" stroke="black" stroke-width="4" stroke-miterlimit="10" stroke-linecap="round" stroke-linejoin="round"/>
<path d="M333.029 347.044C333.355 345.336 333.924 343.709 334.656 342.163C334.25 343.871 333.68 345.498 333.029 347.044Z" stroke="black" stroke-width="4" stroke-miterlimit="10" stroke-linecap="round" stroke-linejoin="round"/>
<path d="M333.249 342.897H163.629C157.609 342.897 152.483 338.423 151.67 332.403L141.094 249.586C140.199 242.427 145.812 236 153.053 236H343.825C351.065 236 356.679 242.345 355.784 249.586L345.208 332.403C344.395 338.342 339.269 342.897 333.249 342.897Z" fill="#4DD0E2"/>
<path opacity="0.21" d="M344.665 327.439C343.933 333.459 338.808 337.934 332.706 337.934H163.167C157.147 337.934 152.022 333.459 151.208 327.439L140.795 245.842C140.551 247.144 140.47 248.446 140.632 249.829L151.208 332.646C151.94 338.666 157.066 343.14 163.167 343.14H332.787C338.808 343.14 343.933 338.666 344.746 332.646L355.322 249.829C355.485 248.446 355.404 247.144 355.159 245.842L344.665 327.439Z" fill="#7E7E7E"/>
<path opacity="0.21" d="M140.713 250.56C141.689 245.028 146.571 240.635 152.509 240.635H343.282C349.302 240.635 354.101 244.947 355.078 250.56L355.159 249.747C356.054 242.588 350.441 236.161 343.2 236.161H152.591C145.35 236.161 139.737 242.507 140.632 249.747L140.713 250.56Z" fill="#7E7E7E"/>
<path d="M332.786 343.137H163.166C157.146 343.137 152.02 338.662 151.207 332.642L140.631 249.825C139.736 242.666 145.349 236.239 152.59 236.239H343.362C350.603 236.239 356.216 242.585 355.321 249.825L344.745 332.642C343.932 338.581 338.806 343.137 332.786 343.137Z" stroke="black" stroke-width="4" stroke-miterlimit="10" stroke-linecap="round" stroke-linejoin="round"/>
<path d="M339.941 415.544C337.257 406.839 329.04 402.202 315.698 398.297C307.238 395.857 296.499 394.718 279.659 391.301C271.442 389.674 265.666 386.42 265.666 386.42V395.775C265.666 395.775 321.393 406.758 330.098 421.157C334.328 428.235 333.026 445.563 313.095 447.353C319.196 448.248 329.203 446.702 334.572 441.252C341.243 434.499 343.033 425.469 339.941 415.544Z" fill="#0D0D0D" stroke="#0D0D0D" stroke-width="4" stroke-miterlimit="10" stroke-linecap="round" stroke-linejoin="round"/>
<path d="M265.665 395.774C265.665 395.774 299.02 401.956 316.836 409.604C332.456 416.356 331.968 423.352 332.374 430.511C332.618 434.66 329.69 444.911 317.812 446.701C303.657 448.816 286.979 446.538 265.665 432.952C265.665 399.679 265.665 395.774 265.665 395.774Z" fill="#0D0D0D"/>
<path opacity="0.37" d="M332.374 430.513C332.049 424.737 332.293 419.042 324.158 413.51C324.483 415.544 324.564 417.496 324.646 419.53C324.89 423.679 321.961 433.93 310.084 435.719C297.718 437.591 283.319 436.045 265.665 426.527C265.665 428.56 265.665 430.676 265.665 432.872C286.979 446.458 303.657 448.655 317.812 446.621C329.771 444.912 332.618 434.58 332.374 430.513Z" fill="#0D0D0D"/>
<path d="M265.665 395.774C265.665 395.774 299.02 401.956 316.836 409.604C332.456 416.356 331.968 423.352 332.374 430.511C332.618 434.66 329.69 444.911 317.812 446.7C303.657 448.816 286.979 446.538 265.665 432.952C265.665 399.679 265.665 395.774 265.665 395.774Z" stroke="black" stroke-width="4" stroke-miterlimit="10" stroke-linecap="round" stroke-linejoin="round"/>
<path d="M296.579 414.891C299.264 416.356 298.613 430.593 292.105 432.545" stroke="black" stroke-width="4" stroke-miterlimit="10" stroke-linecap="round" stroke-linejoin="round"/>
<path d="M286.409 413.838C289.175 417.743 287.223 426.936 282.26 429.213" stroke="black" stroke-width="4" stroke-miterlimit="10" stroke-linecap="round" stroke-linejoin="round"/>
<path d="M277.055 410.581C279.821 414.486 277.868 423.679 272.906 425.957" stroke="black" stroke-width="4" stroke-miterlimit="10" stroke-linecap="round" stroke-linejoin="round"/>
<path d="M216.855 189.792V233.072" stroke="black" stroke-width="6" stroke-miterlimit="10" stroke-linecap="round" stroke-linejoin="round"/>
<path d="M271.77 189.792V220.3" stroke="black" stroke-width="6" stroke-miterlimit="10" stroke-linecap="round" stroke-linejoin="round"/>
<path d="M271.77 229.492C275.499 229.492 278.522 226.469 278.522 222.74C278.522 219.01 275.499 215.987 271.77 215.987C268.041 215.987 265.018 219.01 265.018 222.74C265.018 226.469 268.041 229.492 271.77 229.492Z" fill="black"/>
<path d="M271.773 224.693C273.3 224.693 274.539 223.454 274.539 221.927C274.539 220.399 273.3 219.161 271.773 219.161C270.245 219.161 269.007 220.399 269.007 221.927C269.007 223.454 270.245 224.693 271.773 224.693Z" fill="#6666FF"/>
<path d="M245.413 149.524C217.102 149.524 194.079 126.582 194.079 98.1901V38.6399H296.747V98.1901C296.747 126.501 273.805 149.524 245.413 149.524Z" fill="#FFC897"/>
<path d="M245.413 142.447C217.102 142.447 194.079 119.506 194.079 91.1134V98.1911C194.079 126.502 217.021 149.525 245.413 149.525C273.724 149.525 296.747 126.583 296.747 98.1911V91.1134C296.747 119.424 273.805 142.447 245.413 142.447Z" fill="#E5A973"/>
<path d="M245.413 149.524C217.102 149.524 194.079 126.582 194.079 98.1901V38.6399H296.747V98.1901C296.747 126.501 273.805 149.524 245.413 149.524Z" stroke="black" stroke-width="4" stroke-miterlimit="10" stroke-linecap="round" stroke-linejoin="round"/>
<path d="M297.153 44.5801C296.991 41.8141 296.828 38.9668 296.746 36.2008C262.578 37.8278 228.247 37.5838 194.161 34.5737C193.917 37.7465 193.754 40.9193 193.51 44.092C195.055 45.475 196.683 46.9393 198.228 48.3223C199.53 48.9732 201.238 49.8681 202.784 50.6816C209.618 54.2611 219.136 58.8169 228.247 60.6066C231.583 61.2574 235.081 61.5829 238.661 61.5015C254.036 61.3388 266.971 55.2374 272.422 52.7154C273.235 52.3087 273.886 51.9832 274.293 51.9019C274.619 51.7392 274.944 51.6578 275.432 51.6578C276.408 51.6578 277.547 51.9019 278.93 52.1459C280.72 52.5527 282.835 52.9595 285.194 52.7967C287.879 52.634 290.32 51.8205 292.679 50.2748C294.062 48.3224 295.608 46.4513 297.153 44.5801Z" fill="#E5A973"/>
<path d="M272.421 13.6642C272.421 13.6642 231.338 -13.4263 197.333 16.8369C190.987 22.4503 188.465 30.5042 188.465 37.9073V77.1193H194.16V48.6459C194.16 46.5307 195.624 44.9036 197.414 44.9036C200.343 44.9036 216.206 53.3643 229.63 55.7235C249.886 59.2217 268.354 49.8662 272.34 48.4832C279.173 46.0426 284.705 54.5033 293.329 44.985H293.654C295.444 44.985 296.908 46.6934 296.908 48.7272V77.2007H302.603V38.1514C302.44 28.5517 291.376 4.4713 272.421 13.6642Z" fill="#231A17"/>
<g opacity="0.34">
<path opacity="0.34" d="M194.079 71.751H188.385V77.1203H194.079V71.751Z" fill="#231A17"/>
<path opacity="0.34" d="M302.438 71.7506H296.743V77.1199H302.438V71.7506Z" fill="#231A17"/>
</g>
<path d="M272.421 13.6642C272.421 13.6642 231.338 -13.4263 197.333 16.8369C190.987 22.4503 188.465 30.5042 188.465 37.9073V77.1193H194.16V48.6459C194.16 46.5307 195.624 44.9036 197.414 44.9036C200.343 44.9036 216.206 53.3643 229.63 55.7235C249.886 59.2217 268.354 49.8662 272.34 48.4832C279.173 46.0426 284.705 54.5033 293.329 44.985H293.654C295.444 44.985 296.908 46.6934 296.908 48.7272V77.2007H302.603V38.1514C302.44 28.5517 291.376 4.4713 272.421 13.6642Z" stroke="black" stroke-width="4" stroke-miterlimit="10" stroke-linecap="round" stroke-linejoin="round"/>
<path d="M237.687 40.1033C237.687 40.1033 193.594 42.9506 184.238 19.521" stroke="black" stroke-width="4" stroke-miterlimit="10" stroke-linecap="round" stroke-linejoin="round"/>
<path d="M243.948 34.4897C243.948 34.4897 201.481 31.8051 190.417 8.37549" stroke="black" stroke-width="4" stroke-miterlimit="10" stroke-linecap="round" stroke-linejoin="round"/>
<path d="M296.749 70.7753V97.459C302.443 97.459 306.999 91.5202 306.999 84.1171C306.999 76.714 302.443 70.7753 296.749 70.7753Z" fill="#FFC897"/>
<path d="M296.749 72.2388V95.9124C300.084 93.7159 302.362 89.2415 302.362 84.0349C302.362 78.9097 300.084 74.4353 296.749 72.2388Z" fill="#E5A973"/>
<path d="M296.749 70.7753V97.459C302.443 97.459 306.999 91.5202 306.999 84.1171C306.999 76.714 302.443 70.7753 296.749 70.7753Z" stroke="black" stroke-width="4" stroke-miterlimit="10" stroke-linecap="round" stroke-linejoin="round"/>
<path d="M194.162 70.7753V97.459C188.467 97.459 183.911 91.5202 183.911 84.1171C183.83 76.714 188.467 70.7753 194.162 70.7753Z" fill="#FFC897"/>
<path d="M194.162 72.7262C191.233 75.0854 189.199 79.3158 189.199 84.1156C189.199 88.9154 191.152 93.1457 194.162 95.505V72.7262Z" fill="#E5A973"/>
<path d="M194.162 70.7753V97.459C188.467 97.459 183.911 91.5202 183.911 84.1171C183.83 76.714 188.467 70.7753 194.162 70.7753Z" stroke="black" stroke-width="4" stroke-miterlimit="10" stroke-linecap="round" stroke-linejoin="round"/>
<path d="M243.301 92.4946L239.884 103.64C239.884 104.86 243.871 103.884 247.938 104.86" stroke="black" stroke-width="4" stroke-miterlimit="10" stroke-linecap="round" stroke-linejoin="round"/>
<path d="M262.499 113.321C263.719 121.782 252.818 129.266 244.276 127.721" stroke="black" stroke-width="3" stroke-miterlimit="10" stroke-linecap="round" stroke-linejoin="round"/>
<path d="M226.951 83.058C228.839 83.058 230.368 81.4189 230.368 79.3971C230.368 77.3752 228.839 75.7362 226.951 75.7362C225.064 75.7362 223.535 77.3752 223.535 79.3971C223.535 81.4189 225.064 83.058 226.951 83.058Z" stroke="black" stroke-width="2" stroke-miterlimit="10" stroke-linecap="round" stroke-linejoin="round"/>
<path d="M226.951 83.058C228.839 83.058 230.368 81.4189 230.368 79.3971C230.368 77.3752 228.839 75.7362 226.951 75.7362C225.064 75.7362 223.535 77.3752 223.535 79.3971C223.535 81.4189 225.064 83.058 226.951 83.058Z" fill="black"/>
<path d="M215.153 71.6694C216.861 69.6356 220.847 68.2526 225.566 68.2526C229.308 68.2526 232.562 69.1475 234.596 70.5305" stroke="black" stroke-width="3" stroke-miterlimit="10" stroke-linecap="round" stroke-linejoin="round"/>
<path d="M264.371 83.058C266.258 83.058 267.788 81.4189 267.788 79.3971C267.788 77.3752 266.258 75.7362 264.371 75.7362C262.484 75.7362 260.954 77.3752 260.954 79.3971C260.954 81.4189 262.484 83.058 264.371 83.058Z" stroke="black" stroke-width="2" stroke-miterlimit="10" stroke-linecap="round" stroke-linejoin="round"/>
<path d="M264.371 83.058C266.258 83.058 267.788 81.4189 267.788 79.3971C267.788 77.3752 266.258 75.7362 264.371 75.7362C262.484 75.7362 260.954 77.3752 260.954 79.3971C260.954 81.4189 262.484 83.058 264.371 83.058Z" fill="black"/>
<path d="M276.165 71.6694C274.457 69.6356 270.471 68.2526 265.752 68.2526C262.01 68.2526 258.756 69.1475 256.722 70.5305" stroke="black" stroke-width="3" stroke-miterlimit="10" stroke-linecap="round" stroke-linejoin="round"/>
</svg>
