<svg width="25" height="31" viewBox="0 0 25 31" fill="none" xmlns="http://www.w3.org/2000/svg">
<path d="M16.6963 7.51319H7.30273V1.85436C7.30273 0.830245 8.13298 0 9.15715 0H14.8419C15.8661 0 16.6963 0.830245 16.6963 1.85436V7.51319Z" fill="#231A17"/>
<path d="M14.8412 0H12.9868C14.011 0 14.8412 0.830245 14.8412 1.85436V7.51319H16.6955V1.85436C16.6955 0.830245 15.8653 0 14.8412 0Z" fill="#231A17"/>
<path d="M20.7102 26.6924H23.9165L21.9777 18.5086C21.6928 17.3058 20.7484 16.373 19.5469 16.1076L15.226 15.1532L14.1297 15.1158C13.6396 15.0076 13.2904 14.5711 13.2904 14.0667V10.7949H10.7095V14.0667C10.7095 14.5711 10.3604 15.0075 9.87021 15.1158L8.77398 15.1532L4.45301 16.1076C3.25159 16.373 2.3071 17.3058 2.02221 18.5086L0.0834961 26.6924" fill="#2D1FBE"/>
<path d="M14.0103 16.2215L17.6927 17.0349C18.8941 17.3003 19.8386 18.2332 20.1235 19.4359L21.8425 26.6926H23.9166L21.9778 18.5087C21.6929 17.306 20.7485 16.3732 19.547 16.1078L15.2261 15.1533L14.0103 16.2215Z" fill="#6666FF"/>
<path d="M23.1222 28.3494L18.7821 29.6735L18.2217 26.9729L22.4741 25.9486C23.139 25.7885 23.8072 26.2004 23.9666 26.8687C24.1193 27.509 23.7492 28.1581 23.1222 28.3494Z" fill="#FFCEBF"/>
<path d="M23.9668 26.8687C23.8074 26.2004 23.1392 25.7884 22.4743 25.9486L21.6334 26.1511C21.865 26.3193 22.0406 26.5676 22.1124 26.8687C22.2651 27.5091 21.895 28.1581 21.268 28.3494L18.6719 29.1414L18.7823 29.6735L23.1224 28.3494C23.7493 28.1582 24.1195 27.5091 23.9668 26.8687Z" fill="#FFB09E"/>
<path d="M0.87871 28.3494L5.21882 29.6735L5.77924 26.9729L1.52685 25.9486C0.861909 25.7885 0.193669 26.2004 0.0343043 26.8687C-0.11834 27.509 0.251811 28.1581 0.87871 28.3494Z" fill="#FFCEBF"/>
<path d="M8.77344 15.1532C9.51566 16.1275 10.6842 16.7565 11.9995 16.7565C13.3147 16.7565 14.4833 16.1275 15.2256 15.1532L14.1293 15.1158C13.6392 15.0075 13.29 14.5711 13.29 14.0667V10.7949H9.78189V14.0667C9.78189 14.5711 9.43274 15.0075 8.94258 15.1158L8.77344 15.1532Z" fill="#FFCEBF"/>
<path d="M13.2021 16.043L14.0097 16.2214C14.4826 15.9498 14.8961 15.5856 15.2255 15.1532L15.0565 15.1158C14.5663 15.0075 14.2171 14.5711 14.2171 14.0667V10.7949H12.3628V14.9939C12.3628 15.4982 12.7119 15.9347 13.2021 16.043Z" fill="#FFB09E"/>
<path d="M16.6963 5.88158C16.2944 5.76572 15.633 5.51959 14.9658 4.97987C14.3802 4.50628 14.0121 3.98606 13.7913 3.60301C13.7242 3.48667 13.5682 3.46027 13.4673 3.54865C13.023 3.93794 12.4651 4.35387 11.7828 4.72624C9.99886 5.70001 8.29666 5.86784 7.30273 5.88152V8.89127C7.30273 10.6836 8.29666 12.2427 9.76077 13.0421C10.4262 13.4054 11.0995 13.3804 11.9101 13.3804C11.9101 13.3804 13.5585 13.4092 14.2196 13.0522C15.6939 12.2559 16.6963 10.6913 16.6963 8.89127V5.88158Z" fill="#FFCEBF"/>
<path d="M14.9665 4.98047C14.3796 4.50579 14.0112 3.98438 13.7905 3.60109C13.7239 3.4854 13.5686 3.46116 13.4682 3.54918C13.1775 3.80389 12.8371 4.06988 12.4461 4.32777C12.6282 4.54359 12.8478 4.7668 13.1122 4.98053C13.4149 5.22545 13.7165 5.4099 13.9932 5.54916C14.5112 5.80987 14.8427 6.33471 14.8427 6.91451V8.89199C14.8568 9.18905 14.8976 10.6956 13.7641 11.9018C12.2032 13.5628 9.89492 13.0796 9.78271 13.0541C10.2408 13.2942 10.8534 13.5298 11.5936 13.5949C11.7344 13.6073 11.8702 13.6126 12.0004 13.6125C14.5943 13.6125 16.6971 11.4991 16.6971 8.89193V5.88217C16.2951 5.76625 15.6337 5.52012 14.9665 4.98047Z" fill="#FFB09E"/>
<path d="M9.73408 8.62722C9.47799 8.62722 9.27051 8.41967 9.27051 8.16364V7.25264C9.27051 6.99661 9.47805 6.78906 9.73408 6.78906C9.99011 6.78906 10.1977 6.99661 10.1977 7.25264V8.16364C10.1977 8.41967 9.99017 8.62722 9.73408 8.62722Z" fill="#727272"/>
<path d="M14.2663 8.62722C14.0102 8.62722 13.8027 8.41967 13.8027 8.16364V7.25264C13.8027 6.99661 14.0103 6.78906 14.2663 6.78906C14.5223 6.78906 14.7299 6.99661 14.7299 7.25264V8.16364C14.7299 8.41967 14.5223 8.62722 14.2663 8.62722Z" fill="#727272"/>
<path d="M12 11.993C11.9918 11.993 11.9837 11.993 11.9754 11.9929C11.5903 11.9889 11.208 11.8881 10.8697 11.7017C10.6456 11.5781 10.564 11.2961 10.6876 11.0719C10.8112 10.8477 11.0932 10.7661 11.3174 10.8898C11.46 10.9684 11.6916 11.0627 11.9852 11.0658C11.9901 11.0659 11.9951 11.0659 12 11.0659C12.2996 11.0659 12.5361 10.9705 12.6826 10.8898C12.9068 10.7662 13.1887 10.8477 13.3124 11.0719C13.4359 11.2962 13.3544 11.5781 13.1302 11.7017C12.8879 11.8353 12.4965 11.993 12 11.993Z" fill="#FFB09E"/>
<path d="M17.2709 8.11018H16.6968V5.88184H17.2709C17.8847 5.88184 18.3822 6.37943 18.3822 6.99319V6.99883C18.3823 7.61265 17.8847 8.11018 17.2709 8.11018Z" fill="#FFCEBF"/>
<path d="M6.72903 8.11018H7.30313V5.88184H6.72903C6.11521 5.88184 5.61768 6.37943 5.61768 6.99319V6.99883C5.61768 7.61265 6.11527 8.11018 6.72903 8.11018Z" fill="#FFB09E"/>
<path d="M4.33348 28.8662H19.6652C19.9653 28.8662 20.2086 29.1429 20.2086 29.4843V30.1025C20.2086 30.4439 19.9653 30.7206 19.6652 30.7206H4.33348C4.03335 30.7206 3.79004 30.4439 3.79004 30.1025V29.4843C3.79004 29.1429 4.03335 28.8662 4.33348 28.8662Z" fill="#4DD0E2"/>
<path d="M19.6644 28.8662H17.8101C18.1102 28.8662 18.3535 29.1429 18.3535 29.4843V30.1025C18.3535 30.4439 18.1102 30.7206 17.8101 30.7206H19.6644C19.9645 30.7206 20.2079 30.4439 20.2079 30.1025V29.4843C20.2079 29.1429 19.9645 28.8662 19.6644 28.8662Z" fill="#8BF0FE"/>
<path d="M18.5747 28.8666H5.42498C4.52231 28.8666 3.79053 28.1348 3.79053 27.2322V19.8503C3.79053 18.9476 4.52231 18.2158 5.42498 18.2158H18.5747C19.4773 18.2158 20.2091 18.9476 20.2091 19.8503V27.2322C20.2091 28.1348 19.4773 28.8666 18.5747 28.8666Z" fill="#55E3F7"/>
<path d="M18.5741 18.2158H16.7197C17.6224 18.2158 18.3542 18.9476 18.3542 19.8503V27.2322C18.3542 28.1348 17.6224 28.8666 16.7197 28.8666H18.5741C19.4768 28.8666 20.2085 28.1348 20.2085 27.2322V19.8503C20.2085 18.9476 19.4768 18.2158 18.5741 18.2158Z" fill="#8EE8F4"/>
<path d="M11.9991 25.5327C12.9745 25.5327 13.7652 24.738 13.7652 23.7576C13.7652 22.7772 12.9745 21.9824 11.9991 21.9824C11.0236 21.9824 10.2329 22.7772 10.2329 23.7576C10.2329 24.738 11.0236 25.5327 11.9991 25.5327Z" fill="#2D1FBE"/>
</svg>
