<svg width="40" height="40" viewBox="0 0 40 40" fill="none" xmlns="http://www.w3.org/2000/svg">
<circle cx="20" cy="20" r="20" fill="#6666FF"/>
<path d="M21.1792 20.1048H20.9292V20.3548V28.7899L18.064 28.79V20.3549V20.1049H17.814H15.25V17.2202H17.814H18.064V16.9702V14.4741C18.064 13.0747 18.4746 12.0245 19.1558 11.3252C19.8367 10.6262 20.8149 10.25 22.0054 10.25C22.979 10.25 23.8377 10.3121 24.27 10.356V12.9106L22.7943 12.9113C22.7943 12.9113 22.7943 12.9113 22.7942 12.9113C22.0817 12.9113 21.5875 13.0874 21.2852 13.4603C20.9928 13.8209 20.9292 14.3096 20.9292 14.8091V16.9701V17.2201H21.1792H24.1233L23.7652 20.1048H21.1792Z" fill="white" stroke="#5964EB" stroke-width="0.5"/>
</svg>
