<svg width="44" height="44" viewBox="0 0 44 44" fill="none" xmlns="http://www.w3.org/2000/svg">
<path d="M9.97973 12.129H12.9377V20.829H23.5227V12.129H26.4807V32.4H23.5227V23.323H12.9377V32.4H9.97973V12.129ZM32.1711 32.603C31.4364 32.603 30.8274 32.3807 30.3441 31.936C29.8801 31.472 29.6481 30.9017 29.6481 30.225C29.6481 29.5483 29.8801 28.9877 30.3441 28.543C30.8274 28.079 31.4364 27.847 32.1711 27.847C32.8864 27.847 33.4761 28.079 33.9401 28.543C34.4041 28.9877 34.6361 29.5483 34.6361 30.225C34.6361 30.9017 34.4041 31.472 33.9401 31.936C33.4761 32.3807 32.8864 32.603 32.1711 32.603Z" fill="white"/>
<rect x="1.25" y="1.25" width="41.5" height="41.5" rx="5.75" stroke="white" stroke-width="1.5"/>
</svg>
