<svg width="44" height="44" viewBox="0 0 44 44" fill="none" xmlns="http://www.w3.org/2000/svg">
<path d="M18.8803 32.3999C16.6763 32.3999 14.7237 31.9842 13.0223 31.1529C11.3403 30.3216 10.0257 29.1422 9.07835 27.6149C8.15035 26.0682 7.68635 24.2702 7.68635 22.2209C7.68635 20.1522 8.15035 18.3252 9.07835 16.7399C10.0063 15.1352 11.2823 13.8979 12.9063 13.0279C14.5303 12.1386 16.3477 11.6939 18.3583 11.6939C20.369 11.6939 22.1863 12.1386 23.8103 13.0279C25.4343 13.8979 26.7103 15.1352 27.6383 16.7399C28.5663 18.3252 29.0303 20.1522 29.0303 22.2209C29.0303 23.8642 28.6533 25.3722 27.8993 26.7449C27.1647 28.0982 26.1883 29.1326 24.9703 29.8479H29.3493V32.3999H18.8803ZM18.3583 29.7029C19.847 29.7029 21.1713 29.4129 22.3313 28.8329C23.4913 28.2529 24.3903 27.4022 25.0283 26.2809C25.6857 25.1402 26.0143 23.7869 26.0143 22.2209C26.0143 20.6742 25.676 19.3112 24.9993 18.1319C24.3227 16.9332 23.4043 16.0149 22.2443 15.3769C21.0843 14.7389 19.789 14.4199 18.3583 14.4199C16.9277 14.4199 15.6227 14.7389 14.4433 15.3769C13.2833 16.0149 12.365 16.9236 11.6883 18.1029C11.0117 19.2822 10.6733 20.6549 10.6733 22.2209C10.6733 23.8062 10.9923 25.1596 11.6303 26.2809C12.2877 27.4022 13.1963 28.2529 14.3563 28.8329C15.5163 29.4129 16.8503 29.7029 18.3583 29.7029ZM36.3494 30.2249C36.3494 28.8909 35.3054 27.8469 33.8844 27.8469C32.4054 27.8469 31.3614 28.8909 31.3614 30.2249C31.3614 31.5589 32.4054 32.6029 33.8844 32.6029C35.3054 32.6029 36.3494 31.5589 36.3494 30.2249Z" fill="white"/>
<rect x="1.25" y="1.25" width="41.5" height="41.5" rx="5.75" stroke="white" stroke-width="1.5"/>
</svg>
