<svg width="80" height="64" viewBox="0 0 80 64" fill="none" xmlns="http://www.w3.org/2000/svg">
<mask id="mask0" mask-type="alpha" maskUnits="userSpaceOnUse" x="0" y="0" width="80" height="64">
<rect width="80" height="64" fill="#C4C4C4"/>
</mask>
<g mask="url(#mask0)">
<path d="M75.1898 47.9231V48.1231H75.3897H77.7359C78.9213 48.1231 79.8821 49.0838 79.8821 50.2692C79.8821 56.6272 74.7092 61.8 68.3513 61.8H11.7308C5.37281 61.8 0.2 56.6272 0.2 50.2692C0.2 49.0838 1.16073 48.1231 2.34615 48.1231H4.69231H4.89231V47.9231V8.03846C4.89231 4.26799 7.9603 1.2 11.7308 1.2H68.3513C72.1218 1.2 75.1898 4.26799 75.1898 8.03846V47.9231ZM70.6974 48.1231H70.8974V47.9231V8.03846C70.8974 6.63456 69.7552 5.49231 68.3513 5.49231H11.7308C10.3269 5.49231 9.18462 6.63457 9.18462 8.03846V47.9231V48.1231H9.38462H70.6974ZM5.09433 52.4136H4.81121L4.90583 52.6804C5.90154 55.4885 8.58398 57.5077 11.7308 57.5077H68.3513C71.4981 57.5077 74.1805 55.4885 75.1762 52.6804L75.2708 52.4136H74.9877H5.09433Z" fill="#6666FF" stroke="white" stroke-width="0.4"/>
<path d="M27.3248 15.9049L27.3249 15.905C28.1632 16.7427 28.1632 18.1019 27.3249 18.9397L27.3248 18.9397L19.5996 26.6655L19.4582 26.8069L19.5996 26.9484L27.3248 34.6742L27.4662 34.5328L27.3248 34.6742C28.1632 35.5126 28.1631 36.8712 27.3249 37.7089L27.3248 37.7089C26.4864 38.5473 25.1278 38.5473 24.2901 37.709L24.29 37.7089L14.9054 28.3243L14.9054 28.3243C14.0671 27.4866 14.067 26.1279 14.9054 25.2896L24.29 15.9049L24.2901 15.9049C25.1278 15.0666 26.487 15.0666 27.3248 15.9049Z" fill="#4DD0E2" stroke="white" stroke-width="0.4"/>
<path d="M55.7917 15.9049L55.7918 15.9049L65.1764 25.2896C66.0148 26.1279 66.0147 27.4866 65.1764 28.3243L65.1764 28.3243L55.7918 37.7089C54.9534 38.5473 53.5948 38.5473 52.757 37.709L52.7569 37.7089C51.9187 36.8712 51.9186 35.5126 52.757 34.6742L52.6156 34.5328L52.757 34.6742L60.4822 26.9484L60.6236 26.8069L60.4822 26.6655L52.757 18.9397L52.7569 18.9397C51.9187 18.1019 51.9186 16.7433 52.757 15.9049L52.757 15.9049C53.5948 15.0666 54.954 15.0666 55.7917 15.9049Z" fill="#4DD0E2" stroke="white" stroke-width="0.4"/>
<path d="M33.3118 40.2068L33.3118 40.2068L42.6964 12.053C42.6964 12.053 42.6964 12.0529 42.6964 12.0529C43.0715 10.9284 44.2871 10.3209 45.411 10.6954C46.5356 11.0705 47.1435 12.2855 46.7685 13.4099L46.7685 13.4099L37.3839 41.5637C37.3839 41.5637 37.3839 41.5637 37.3839 41.5637C37.0088 42.6883 35.7932 43.2963 34.6694 42.9213L34.6694 42.9213C33.5448 42.5463 32.9368 41.3312 33.3118 40.2068Z" fill="#4DD0E2" stroke="white" stroke-width="0.4"/>
</g>
</svg>
