<svg width="44" height="44" viewBox="0 0 44 44" fill="none" xmlns="http://www.w3.org/2000/svg">
<path d="M9.97973 12.1289H12.9377V20.8289H23.5227V12.1289H26.4807V32.3999H23.5227V23.3229H12.9377V32.3999H9.97973V12.1289ZM32.1711 32.6029C31.4364 32.6029 30.8274 32.3806 30.3441 31.9359C29.8801 31.4719 29.6481 30.9016 29.6481 30.2249C29.6481 29.5482 29.8801 28.9876 30.3441 28.5429C30.8274 28.0789 31.4364 27.8469 32.1711 27.8469C32.8864 27.8469 33.4761 28.0789 33.9401 28.5429C34.4041 28.9876 34.6361 29.5482 34.6361 30.2249C34.6361 30.9016 34.4041 31.4719 33.9401 31.9359C33.4761 32.3806 32.8864 32.6029 32.1711 32.6029Z" fill="#6666FF"/>
<rect x="1.25" y="1.25" width="41.5" height="41.5" rx="5.75" stroke="#6666FF" stroke-width="1.5"/>
</svg>
