<svg width="44" height="44" viewBox="0 0 44 44" fill="none" xmlns="http://www.w3.org/2000/svg">
<path d="M18.8803 32.4004C16.6763 32.4004 14.7237 31.9847 13.0223 31.1534C11.3403 30.3221 10.0257 29.1427 9.07835 27.6154C8.15035 26.0687 7.68635 24.2707 7.68635 22.2214C7.68635 20.1527 8.15035 18.3257 9.07835 16.7404C10.0063 15.1357 11.2823 13.8984 12.9063 13.0284C14.5303 12.1391 16.3477 11.6944 18.3583 11.6944C20.369 11.6944 22.1863 12.1391 23.8103 13.0284C25.4343 13.8984 26.7103 15.1357 27.6383 16.7404C28.5663 18.3257 29.0303 20.1527 29.0303 22.2214C29.0303 23.8647 28.6533 25.3727 27.8993 26.7454C27.1647 28.0987 26.1883 29.1331 24.9703 29.8484H29.3493V32.4004H18.8803ZM18.3583 29.7034C19.847 29.7034 21.1713 29.4134 22.3313 28.8334C23.4913 28.2534 24.3903 27.4027 25.0283 26.2814C25.6857 25.1407 26.0143 23.7874 26.0143 22.2214C26.0143 20.6747 25.676 19.3117 24.9993 18.1324C24.3227 16.9337 23.4043 16.0154 22.2443 15.3774C21.0843 14.7394 19.789 14.4204 18.3583 14.4204C16.9277 14.4204 15.6227 14.7394 14.4433 15.3774C13.2833 16.0154 12.365 16.9241 11.6883 18.1034C11.0117 19.2827 10.6733 20.6554 10.6733 22.2214C10.6733 23.8067 10.9923 25.1601 11.6303 26.2814C12.2877 27.4027 13.1963 28.2534 14.3563 28.8334C15.5163 29.4134 16.8503 29.7034 18.3583 29.7034ZM36.3494 30.2254C36.3494 28.8914 35.3054 27.8474 33.8844 27.8474C32.4054 27.8474 31.3614 28.8914 31.3614 30.2254C31.3614 31.5594 32.4054 32.6034 33.8844 32.6034C35.3054 32.6034 36.3494 31.5594 36.3494 30.2254Z" fill="#6666FF"/>
<rect x="1.25" y="1.25" width="41.5" height="41.5" rx="5.75" stroke="#6666FF" stroke-width="1.5"/>
</svg>
