<svg width="21" height="16" viewBox="0 0 21 16" fill="none" xmlns="http://www.w3.org/2000/svg">
<path d="M10.0525 3.22998L2.88209 9.14126C2.88209 9.1496 2.87999 9.16187 2.8758 9.1786C2.87169 9.1952 2.86951 9.20726 2.86951 9.21582V15.2016C2.86951 15.4177 2.94852 15.605 3.10651 15.7628C3.26445 15.9206 3.45148 16 3.66765 16H8.45615V11.2112H11.6489V16.0001H16.4374C16.6535 16.0001 16.8408 15.9209 16.9985 15.7628C17.1565 15.6052 17.2358 15.4178 17.2358 15.2016V9.21582C17.2358 9.18262 17.2313 9.15755 17.2232 9.14126L10.0525 3.22998Z" fill="#6666FF"/>
<path d="M19.9665 7.79423L17.2357 5.52459V0.43657C17.2357 0.320253 17.1983 0.224597 17.1232 0.149731C17.0488 0.074953 16.9531 0.0375639 16.8366 0.0375639H14.4423C14.3258 0.0375639 14.2302 0.074953 14.1553 0.149731C14.0806 0.224597 14.0432 0.320297 14.0432 0.43657V2.8683L11.0005 0.324228C10.7347 0.108062 10.4188 0 10.0529 0C9.6871 0 9.37117 0.108062 9.10517 0.324228L0.138573 7.79423C0.0554527 7.86062 0.00989575 7.94999 0.00142207 8.06225C-0.00700793 8.17441 0.0220384 8.27238 0.0886485 8.35546L0.861806 9.27831C0.928416 9.35309 1.0156 9.39882 1.1237 9.41555C1.22351 9.42393 1.32332 9.39476 1.42312 9.32828L10.0526 2.13253L18.6823 9.32823C18.7489 9.38624 18.8361 9.4152 18.9442 9.4152H18.9816C19.0896 9.39878 19.1766 9.35274 19.2435 9.27813L20.0168 8.35542C20.0833 8.27217 20.1124 8.17437 20.1037 8.06207C20.0952 7.95012 20.0495 7.86075 19.9665 7.79423Z" fill="#6666FF"/>
</svg>
