<svg width="40" height="40" viewBox="0 0 40 40" fill="none" xmlns="http://www.w3.org/2000/svg">
<circle cx="20" cy="20" r="20" fill="#6666FF"/>
<path d="M16.636 19.52C16.636 17.7675 18.1209 16.3464 19.9531 16.3464C21.7854 16.3464 23.2711 17.7675 23.2711 19.52C23.2711 21.2725 21.7854 22.6936 19.9531 22.6936C18.1209 22.6936 16.636 21.2725 16.636 19.52ZM14.8423 19.52C14.8423 22.2199 17.1304 24.4084 19.9531 24.4084C22.7759 24.4084 25.064 22.2199 25.064 19.52C25.064 16.8201 22.7759 14.6316 19.9531 14.6316C17.1304 14.6316 14.8423 16.8201 14.8423 19.52ZM24.0719 14.4378C24.0719 15.0684 24.6065 15.5805 25.2666 15.5805C25.9258 15.5805 26.4613 15.0684 26.4613 14.4378C26.4613 13.8072 25.9266 13.2959 25.2666 13.2959C24.6065 13.2959 24.0719 13.8072 24.0719 14.4378ZM15.9317 27.269C14.9613 27.2267 14.4339 27.0722 14.0834 26.9414C13.6187 26.7684 13.2874 26.5623 12.9385 26.2294C12.5904 25.8964 12.3741 25.5796 12.194 25.1351C12.0574 24.7998 11.8958 24.2954 11.8515 23.3672C11.8033 22.3637 11.7937 22.0623 11.7937 19.52C11.7937 16.9777 11.8041 16.6771 11.8515 15.6728C11.8958 14.7446 12.0582 14.2409 12.194 13.9049C12.3749 13.4604 12.5904 13.1436 12.9385 12.8099C13.2866 12.4769 13.6179 12.27 14.0834 12.0978C14.4339 11.9671 14.9613 11.8125 15.9317 11.7702C16.9809 11.7241 17.296 11.7148 19.9531 11.7148C22.611 11.7148 22.9254 11.7248 23.9754 11.7702C24.9458 11.8125 25.4724 11.9678 25.8237 12.0978C26.2884 12.27 26.6196 12.4769 26.9686 12.8099C27.3167 13.1428 27.5321 13.4604 27.713 13.9049C27.8497 14.2402 28.0113 14.7446 28.0555 15.6728C28.1038 16.6771 28.1134 16.9777 28.1134 19.52C28.1134 22.0615 28.1038 22.3629 28.0555 23.3672C28.0113 24.2954 27.8489 24.7998 27.713 25.1351C27.5321 25.5796 27.3167 25.8964 26.9686 26.2294C26.6204 26.5623 26.2884 26.7684 25.8237 26.9414C25.4732 27.0722 24.9458 27.2267 23.9754 27.269C22.9262 27.3152 22.611 27.3244 19.9531 27.3244C17.296 27.3244 16.9809 27.3152 15.9317 27.269ZM15.8497 10.0577C14.79 10.1038 14.0665 10.2645 13.4337 10.4998C12.7793 10.7428 12.2246 11.0689 11.6706 11.5979C11.1175 12.127 10.7766 12.6576 10.5226 13.2843C10.2766 13.8895 10.1085 14.5816 10.0603 15.5951C10.0113 16.6102 10 16.9347 10 19.52C10 22.1053 10.0113 22.4298 10.0603 23.4449C10.1085 24.4584 10.2766 25.1505 10.5226 25.7557C10.7766 26.3816 11.1167 26.913 11.6706 27.4421C12.2238 27.9711 12.7785 28.2964 13.4337 28.5402C14.0673 28.7755 14.79 28.9362 15.8497 28.9823C16.9117 29.0285 17.2502 29.04 19.9531 29.04C22.6569 29.04 22.9953 29.0292 24.0566 28.9823C25.1162 28.9362 25.8398 28.7755 26.4725 28.5402C27.1269 28.2964 27.6817 27.9711 28.2356 27.4421C28.7887 26.913 29.1288 26.3816 29.3837 25.7557C29.6297 25.1505 29.7985 24.4584 29.846 23.4449C29.8942 22.4291 29.9055 22.1053 29.9055 19.52C29.9055 16.9347 29.8942 16.6102 29.846 15.5951C29.7977 14.5816 29.6297 13.8895 29.3837 13.2843C29.1288 12.6584 28.7887 12.1278 28.2356 11.5979C27.6825 11.0689 27.1269 10.7428 26.4733 10.4998C25.8398 10.2645 25.1162 10.103 24.0574 10.0577C22.9961 10.0115 22.6569 10 19.9539 10C17.2502 10 16.9117 10.0108 15.8497 10.0577Z" fill="white"/>
</svg>
