<svg width="36" height="36" viewBox="0 0 36 36" fill="none" xmlns="http://www.w3.org/2000/svg">
<rect opacity="0.2" width="36" height="36" rx="5" fill="#D2E0EF"/>
<path d="M12.8295 13.6249C13.0494 13.8448 13.4055 13.8448 13.6249 13.6249C13.8442 13.4049 13.8442 13.0489 13.6249 12.8295L12.4318 11.6359C12.2119 11.4159 11.8558 11.4159 11.6364 11.6359C11.4165 11.8558 11.4165 12.2119 11.6364 12.4313L12.8295 13.6249ZM13.1681 22.0444L11.9863 23.2262C11.7686 23.4439 11.7686 23.7966 11.9863 24.0143C12.204 24.2319 12.5567 24.2319 12.7744 24.0143L13.9562 22.8324C14.1739 22.6148 14.1739 22.2621 13.9562 22.0444C13.7385 21.8267 13.3858 21.8267 13.1681 22.0444ZM18 11.8125C18.3105 11.8125 18.5625 11.5605 18.5625 11.25V9.5625C18.5625 9.252 18.3105 9 18 9C17.6895 9 17.4375 9.252 17.4375 9.5625V11.25C17.4375 11.5605 17.6895 11.8125 18 11.8125ZM23.4118 13.3762L24.5936 12.1944C24.8113 11.9767 24.8113 11.624 24.5936 11.4064C24.376 11.1887 24.0232 11.1887 23.8056 11.4064L22.6237 12.5882C22.4061 12.8059 22.4061 13.1586 22.6237 13.3762C22.8414 13.5939 23.1941 13.5939 23.4118 13.3762ZM11.25 17.4375H9.5625C9.252 17.4375 9 17.6895 9 18C9 18.3105 9.252 18.5625 9.5625 18.5625H11.25C11.5605 18.5625 11.8125 18.3105 11.8125 18C11.8125 17.6895 11.5605 17.4375 11.25 17.4375ZM18 24.1875C17.6895 24.1875 17.4375 24.4395 17.4375 24.75V26.4375C17.4375 26.748 17.6895 27 18 27C18.3105 27 18.5625 26.748 18.5625 26.4375V24.75C18.5625 24.4395 18.3105 24.1875 18 24.1875ZM26.4375 17.4375H24.75C24.4395 17.4375 24.1875 17.6895 24.1875 18C24.1875 18.3105 24.4395 18.5625 24.75 18.5625H26.4375C26.748 18.5625 27 18.3105 27 18C27 17.6895 26.748 17.4375 26.4375 17.4375ZM23.1705 22.3751C22.9506 22.1552 22.5945 22.1552 22.3751 22.3751C22.1552 22.5951 22.1552 22.9511 22.3751 23.1705L23.5682 24.3636C23.7881 24.5835 24.1442 24.5835 24.3636 24.3636C24.5829 24.1436 24.5835 23.7876 24.3636 23.5682L23.1705 22.3751ZM18 12.9341C15.2021 12.9341 12.9341 15.2021 12.9341 18C12.9341 20.7979 15.2021 23.0659 18 23.0659C20.7979 23.0659 23.0659 20.7979 23.0659 18C23.0659 15.2021 20.7979 12.9341 18 12.9341Z" fill="#6666FF"/>
</svg>
