<svg width="40" height="40" viewBox="0 0 40 40" fill="none" xmlns="http://www.w3.org/2000/svg">
<circle cx="20" cy="20" r="20" fill="#6666FF"/>
<path d="M10.8427 10.8082L10.8427 10.8082C10.4479 11.1751 10.25 11.6364 10.25 12.2117C10.25 12.7894 10.4433 13.2555 10.8275 13.6287C11.2089 13.9992 11.7126 14.1927 12.3633 14.1927H12.3825C13.0614 14.1927 13.585 13.9976 13.9786 13.6262L13.9787 13.626C14.3625 13.2645 14.5534 12.8182 14.5534 12.2694C14.5534 11.6509 14.3522 11.168 13.9594 10.7973L10.8427 10.8082ZM10.8427 10.8082C11.2369 10.4417 11.7552 10.25 12.4209 10.25M10.8427 10.8082L12.4209 10.25M12.4209 10.25C13.0737 10.25 13.5783 10.4384 13.9594 10.7972L12.4209 10.25ZM20.894 17.946V17.9609L20.7204 18.3083H21.1248H21.144H21.394V18.0946C22.2682 16.7814 23.4647 16.1351 25.0059 16.1351C26.4173 16.1351 27.5321 16.6019 28.376 17.525C29.2155 18.4434 29.6555 19.8123 29.6555 21.674V28.79H25.89V22.1741C25.89 21.1825 25.7076 20.3933 25.3029 19.8472C24.8878 19.2869 24.2675 19.02 23.4881 19.02C22.8892 19.02 22.3721 19.185 21.9551 19.5291C21.5588 19.8562 21.2619 20.2581 21.0669 20.7318C20.9458 21.0202 20.894 21.4048 20.894 21.8663V28.79H17.1302C17.1547 25.0388 17.167 22.1154 17.167 20.02C17.167 18.2224 17.158 17.0272 17.1395 16.4428H20.894V17.946ZM10.4998 28.79V16.4428H14.2652V28.79H10.4998Z" fill="white" stroke="#5964EB" stroke-width="0.5"/>
</svg>
