<svg width="25" height="20" viewBox="0 0 25 20" fill="none" xmlns="http://www.w3.org/2000/svg">
<path d="M2.39951 5.90727C2.71575 6.125 3.66904 6.77165 5.25941 7.8469C6.84983 8.92214 8.0682 9.75005 8.91457 10.3307C9.00756 10.3943 9.20511 10.5327 9.50734 10.7459C9.80961 10.9593 10.0608 11.1317 10.2606 11.2633C10.4606 11.3948 10.7024 11.5423 10.9862 11.7056C11.2699 11.8687 11.5373 11.9914 11.7884 12.0726C12.0396 12.1546 12.2721 12.1951 12.486 12.1951H12.5H12.5141C12.728 12.1951 12.9605 12.1545 13.2117 12.0726C13.4627 11.9914 13.7304 11.8686 14.0139 11.7056C14.2975 11.5421 14.5392 11.3947 14.7392 11.2633C14.9392 11.1317 15.1902 10.9593 15.4926 10.7459C15.7947 10.5325 15.9925 10.3943 16.0855 10.3307C16.941 9.75005 19.1176 8.27544 22.6145 5.90698C23.2934 5.4444 23.8606 4.88623 24.3162 4.23285C24.7722 3.57976 25 2.89464 25 2.17786C25 1.57888 24.779 1.06614 24.3372 0.639693C23.8954 0.213152 23.3722 0 22.7678 0H2.23205C1.51595 0 0.964865 0.235892 0.57889 0.707677C0.192963 1.17956 0 1.76938 0 2.47711C0 3.04877 0.255851 3.66825 0.767309 4.33516C1.27872 5.00213 1.82296 5.52621 2.39951 5.90727Z" fill="#6666FF"/>
<path d="M23.6047 7.32096C20.5544 9.40187 18.2383 11.0191 16.6574 12.1722C16.1273 12.5658 15.6972 12.873 15.367 13.0932C15.0367 13.3135 14.5975 13.5385 14.0486 13.768C13.5 13.9979 12.9887 14.1125 12.5142 14.1125H12.5H12.486C12.0117 14.1125 11.5001 13.9979 10.9514 13.768C10.4028 13.5385 9.96326 13.3135 9.63309 13.0932C9.30302 12.873 8.87282 12.5658 8.34275 12.1722C7.0871 11.2443 4.77594 9.62694 1.40918 7.32096C0.878912 6.96497 0.409234 6.55692 0 6.09766V17.2622C0 17.8812 0.21847 18.4106 0.655653 18.8512C1.09274 19.292 1.61832 19.5123 2.23219 19.5123H22.768C23.3817 19.5123 23.9072 19.292 24.3443 18.8512C24.7816 18.4105 25 17.8813 25 17.2622V6.09766C24.6 6.54742 24.1351 6.95546 23.6047 7.32096Z" fill="#6666FF"/>
</svg>
