<svg width="1920" height="766" viewBox="0 0 1920 766" fill="none" xmlns="http://www.w3.org/2000/svg">
<rect width="1920" height="766" fill="#F3F6FB"/>
<g opacity="0.3">
<path d="M54.6126 556.126L120.256 545L163.648 592.842L141.396 657.373L76.8647 668.499L33.4731 616.207L54.6126 556.126Z" fill="#FF999A"/>
<path d="M100.229 603.968L33.4731 616.207L76.8647 668.499L141.396 657.373L100.229 603.968Z" fill="#CD3301"/>
<path d="M120.256 545L100.229 603.968L141.396 657.373L163.648 592.842L120.256 545Z" fill="#EE5941"/>
</g>
<g opacity="0.3">
<path d="M1848.49 486.286L1756.9 431.647L1753.71 328.237L1847.88 272.684L1938.12 326.167L1936.68 435.003L1848.49 486.286Z" fill="#686B72"/>
<path d="M1842.59 380.565L1936.69 435.003L1938.13 326.168L1847.89 272.685L1842.59 380.565Z" fill="#18191D"/>
<path d="M1756.9 431.647L1842.59 380.564L1847.89 272.684L1753.71 328.237L1756.9 431.647Z" fill="#414247"/>
</g>
<g opacity="0.3">
<path d="M108.2 110.761L141.526 57.0555L202.836 56.2348L234.778 112.615L202.151 165.53L137.674 163.554L108.2 110.761Z" fill="#98B4BF"/>
<path d="M170.907 108.364L137.674 163.561L202.151 165.536L234.778 112.622L170.907 108.364Z" fill="#C3DAE0"/>
<path d="M141.526 57.0577L170.908 108.359L234.779 112.618L202.836 56.237L141.526 57.0577Z" fill="#E5F4F9"/>
</g>
</svg>
