<svg width="26" height="25" viewBox="0 0 26 25" fill="none" xmlns="http://www.w3.org/2000/svg">
<path d="M25.4594 19.7298C25.5125 20.136 25.3887 20.4891 25.0887 20.7892L21.5664 24.2848C21.4075 24.4613 21.2001 24.6115 20.9441 24.735C20.6881 24.8586 20.4366 24.9381 20.1895 24.9733C20.1719 24.9733 20.1188 24.9779 20.0304 24.9867C19.9423 24.9955 19.8275 25 19.6863 25C19.3507 25 18.8078 24.9426 18.0574 24.8278C17.3071 24.713 16.3891 24.4305 15.3033 23.9804C14.2174 23.5301 12.986 22.8547 11.6089 21.9544C10.2318 21.0541 8.76637 19.8182 7.2127 18.2468C5.97683 17.0286 4.95282 15.8633 4.14067 14.7511C3.32853 13.6387 2.67528 12.6103 2.18093 11.6658C1.68654 10.7212 1.31578 9.86492 1.0686 9.09691C0.821426 8.3289 0.653701 7.66683 0.565424 7.11069C0.477147 6.55454 0.441837 6.11757 0.459492 5.79978C0.477147 5.48198 0.485975 5.30543 0.485975 5.27012C0.521286 5.02294 0.600735 4.77135 0.724322 4.51535C0.847909 4.25935 0.99798 4.0519 1.17453 3.893L4.69677 0.370762C4.94395 0.123587 5.22643 0 5.54423 0C5.77375 0 5.97678 0.0662075 6.15334 0.198623C6.32989 0.331038 6.47996 0.494349 6.60355 0.688558L9.43723 6.06461C9.59613 6.34709 9.64027 6.65606 9.56965 6.99151C9.49902 7.32696 9.34896 7.60945 9.11944 7.83897L7.82177 9.13664C7.78646 9.17195 7.75556 9.22933 7.72908 9.30878C7.70259 9.38822 7.68935 9.45443 7.68935 9.5074C7.75997 9.87816 7.91887 10.3019 8.16605 10.7786C8.37791 11.2023 8.70453 11.7187 9.14592 12.3278C9.5873 12.9369 10.2141 13.6387 11.0262 14.4332C11.8207 15.2454 12.5269 15.8765 13.1449 16.3268C13.7627 16.7769 14.2793 17.108 14.6942 17.3199C15.1091 17.5317 15.4268 17.6597 15.6475 17.7038L15.9784 17.77C16.0138 17.77 16.0713 17.7567 16.1506 17.7303C16.2301 17.7038 16.2875 17.6729 16.3228 17.6376L17.8323 16.1015C18.1503 15.8191 18.5209 15.6779 18.9446 15.6779C19.2449 15.6779 19.4831 15.7308 19.6596 15.8367H19.6861L24.7972 18.8558C25.1681 19.0855 25.3888 19.3767 25.4594 19.7298Z" fill="#6666FF"/>
</svg>
