<svg width="122" height="137" viewBox="0 0 122 137" fill="none" xmlns="http://www.w3.org/2000/svg">
<path opacity="0.8" d="M0.999512 124.997L110 124.997" stroke="#6666FF" stroke-dasharray="4 4"/>
<mask id="mask0" mask-type="alpha" maskUnits="userSpaceOnUse" x="109" y="114" width="13" height="23">
<rect x="109" y="114" width="13" height="23" fill="#C4C4C4"/>
</mask>
<g mask="url(#mask0)">
<path opacity="0.8" d="M119.236 125.358L110.167 116.003C110.06 115.893 109.999 115.743 109.999 115.587C109.998 115.431 110.058 115.282 110.164 115.171C110.271 115.06 110.415 114.998 110.567 114.997C110.718 114.997 110.863 115.058 110.971 115.168L120.45 124.946C120.503 125.001 120.545 125.065 120.574 125.136C120.602 125.207 120.617 125.284 120.617 125.361C120.617 125.438 120.602 125.514 120.574 125.585C120.545 125.656 120.503 125.721 120.45 125.775L110.971 135.543C110.918 135.598 110.856 135.642 110.787 135.672C110.719 135.701 110.645 135.717 110.57 135.717C110.496 135.717 110.422 135.702 110.353 135.672C110.284 135.642 110.222 135.599 110.17 135.543C110.117 135.489 110.075 135.425 110.046 135.354C110.017 135.282 110.002 135.206 110.002 135.129C110.002 135.052 110.017 134.976 110.046 134.904C110.075 134.833 110.117 134.769 110.17 134.714L119.236 125.358Z" fill="#6666FF" stroke="#6666FF"/>
</g>
<path opacity="0.8" d="M1.00342 0L1.00342 125" stroke="#6666FF" stroke-dasharray="4 4"/>
</svg>
