<svg width="128" height="128" viewBox="0 0 128 128" fill="none" xmlns="http://www.w3.org/2000/svg">
<ellipse rx="63.825" ry="63.8265" transform="matrix(1 -8.74228e-08 -8.74228e-08 -1 63.825 64.1735)" fill="#6666FF" fill-opacity="0.19"/>
<circle r="51.5066" transform="matrix(1 -8.74228e-08 -8.74228e-08 -1 63.5066 64.4934)" fill="#6666FF"/>
<path d="M64.081 78.54C71.326 78.54 76.096 74.535 76.096 68.145C76.096 62.07 71.551 58.425 66.466 58.425C63.721 58.425 61.291 59.505 59.851 60.945V53.61H74.071V47.985H53.461V65.22L57.916 66.39C59.716 64.68 61.741 63.96 64.216 63.96C67.636 63.96 69.616 65.76 69.616 68.415C69.616 70.845 67.591 72.87 64.036 72.87C60.886 72.87 58.096 71.7 56.071 69.585L52.516 74.04C55.081 76.83 58.861 78.54 64.081 78.54Z" fill="white"/>
</svg>
