<svg width="24" height="24" viewBox="0 0 24 24" fill="none" xmlns="http://www.w3.org/2000/svg">
<path d="M22.0051 6.56177C21.1151 6.50543 20.3476 7.17718 20.2909 8.06219L19.6343 11.9601L13.8121 3.51293C13.4124 2.93869 12.5953 2.7113 11.8858 3.05948C10.9818 3.50318 10.6571 4.5426 11.1444 5.2428L9.94078 3.5135C9.45339 2.81325 8.35697 2.74393 7.61646 3.42265C7.03542 3.95523 6.95915 4.79244 7.35884 5.36669L8.51953 7.03435C8.03218 6.33416 6.93572 6.26478 6.19526 6.94346C5.61416 7.47614 5.53795 8.31325 5.93764 8.88754L7.49956 11.1316C7.01221 10.4314 5.91575 10.362 5.17524 11.0408C4.59415 11.5734 4.51793 12.4106 4.91762 12.9849L10.8928 21.5697C13.4087 25.3065 20.0821 23.2249 22.1026 19.3938C23.7927 16.1893 23.514 8.26624 23.514 8.26624C23.5707 7.38122 22.8951 6.61812 22.0051 6.56177Z" fill="#4DD0E2"/>
<path d="M5.8076 9.12399C6.06648 9.12399 6.27634 8.91413 6.27634 8.65526C6.27634 8.39638 6.06648 8.18652 5.8076 8.18652C5.54873 8.18652 5.33887 8.39638 5.33887 8.65526C5.33887 8.91413 5.54873 9.12399 5.8076 9.12399Z" fill="#6666FF"/>
<path d="M23.2633 15.7353C23.2223 15.7152 23.179 15.7045 23.1352 15.702C22.967 15.6921 22.7904 15.8011 22.6948 15.9485C22.5744 16.1344 22.5478 16.3634 22.5147 16.5824C22.2079 18.6125 21.039 20.4978 19.3573 21.6751C17.6005 22.905 14.8753 23.5827 12.8469 22.6465C12.2038 22.3483 11.6765 21.8991 11.28 21.3112C11.28 21.3112 5.31732 12.7414 5.30082 12.7178C5.00889 12.2982 5.12772 11.7201 5.49014 11.3866C5.90886 11.0012 6.72203 10.8495 7.10817 11.3933L10.0847 15.8155C10.1719 15.945 10.3177 16.0223 10.4743 16.0223C10.5675 16.0223 10.6575 15.9946 10.7353 15.9426C10.8394 15.8723 10.9097 15.7663 10.9336 15.6434C10.9575 15.5206 10.9322 15.3954 10.8624 15.2918L7.37362 10.1328C7.28643 10.0066 7.14206 9.93164 6.98878 9.93164C6.89269 9.93164 6.80035 9.9607 6.72114 10.0156C6.68129 10.0432 6.64661 10.0765 6.61694 10.1152C6.51855 10.2322 6.01733 10.1456 5.87127 10.1684C5.49282 10.2275 5.13761 10.4379 4.85702 10.6954C4.15055 11.3437 3.975 12.4536 4.53125 13.2536L8.34783 18.7385C9.68279 20.657 10.8481 23.0955 13.2557 23.7718C14.5644 24.1395 15.9736 24.0337 17.28 23.6578C19.6255 22.9831 21.7525 21.3655 22.7397 19.1329C23.1083 18.2995 23.3142 17.4035 23.4674 16.5052C23.5154 16.2235 23.52 15.861 23.2633 15.7353Z" fill="#6666FF"/>
<path d="M23.9842 8.16134C23.9842 7.63341 23.7846 7.13031 23.4218 6.7444C23.058 6.3576 22.5649 6.12595 22.0329 6.09174C21.9879 6.08892 21.9429 6.08752 21.8993 6.08752C21.3748 6.08752 20.8737 6.28303 20.4875 6.638C20.0999 6.99433 19.8641 7.47961 19.8233 8.00427L19.3625 10.7415L14.1966 3.24384L14.1952 3.24244C13.8366 2.7295 13.2362 2.42332 12.5875 2.42285C12.2757 2.42285 11.9608 2.49649 11.6776 2.6357C11.2117 2.86501 10.8409 3.23822 10.6328 3.68689C10.451 3.42552 10.2848 3.14297 10.0414 2.9334C9.24256 2.24558 8.04771 2.38638 7.29825 3.07407C6.5988 3.71586 6.42232 4.84096 6.97248 5.63223L7.23122 6.00403C6.83139 6.03169 6.44234 6.17236 6.10579 6.41099C6.0036 6.48369 5.93563 6.5915 5.91454 6.71483C5.89345 6.83815 5.92157 6.96241 5.99423 7.0646C6.08188 7.18839 6.22531 7.26245 6.37718 7.26245C6.47421 7.26245 6.56796 7.23292 6.64764 7.1762C6.86514 7.02194 7.12388 6.93705 7.37606 6.93705C7.67319 6.93832 7.9226 7.04608 8.08699 7.24098C8.08886 7.24389 12.1614 13.295 12.1614 13.295C12.2486 13.4249 12.3943 13.5022 12.5504 13.5022C12.6437 13.5022 12.7342 13.4745 12.812 13.422C12.9156 13.3522 12.9863 13.2458 13.0103 13.1229C13.0342 13.0001 13.0088 12.8754 12.939 12.7713L7.74214 5.09628C7.44998 4.67751 7.56927 4.09849 7.93151 3.76517C8.36345 3.36773 9.17459 3.23226 9.55427 3.77829L14.5416 11.1419C14.6288 11.2714 14.7741 11.3487 14.9307 11.3487C15.0239 11.3487 15.1144 11.321 15.1922 11.269C15.2958 11.1987 15.3661 11.0927 15.3905 10.9699C15.4144 10.8471 15.3891 10.7218 15.3192 10.6182C15.3192 10.6182 11.5382 4.98772 11.5276 4.97254C11.4339 4.83749 11.3861 4.68136 11.3851 4.50882C11.3837 4.16795 11.6012 3.72415 12.0906 3.48454C12.249 3.4072 12.4164 3.37457 12.5879 3.37457H12.5898C12.9268 3.37457 13.2465 3.52672 13.4246 3.78321L19.1442 12.0807L18.9538 13.0353C18.9289 13.1581 18.9538 13.2819 19.0236 13.3865C19.093 13.4906 19.1989 13.5609 19.3217 13.5853C19.3522 13.5914 19.4083 13.5936 19.4083 13.5936C19.6409 13.592 19.8249 13.4341 19.8683 13.2163L20.7546 8.09056C20.7917 7.49321 21.2949 7.02527 21.8981 7.02527C21.923 7.02527 21.9484 7.02621 21.9733 7.02761C22.5756 7.06558 23.047 7.5631 23.0465 8.16134C23.0465 8.18572 23.0424 11.1748 23.0059 11.9677C22.9942 12.226 23.1944 12.4454 23.4526 12.4576C23.4597 12.4576 23.4672 12.4581 23.4743 12.4581C23.7255 12.4581 23.9308 12.2616 23.9426 12.0108C23.9796 11.202 23.9983 10.3693 23.9983 9.53469C23.9983 8.82859 23.9842 8.19748 23.9842 8.16134Z" fill="#6666FF"/>
<path d="M23.7694 14.2765C23.8685 14.0373 23.755 13.763 23.5158 13.6639C23.2766 13.5647 23.0023 13.6783 22.9032 13.9175C22.804 14.1567 22.9175 14.431 23.1567 14.5301C23.3959 14.6293 23.6702 14.5157 23.7694 14.2765Z" fill="#6666FF"/>
<path d="M14.8804 2.47459C16.0724 3.32605 16.9827 4.49728 17.5124 5.86266C17.547 5.95265 17.6075 6.02817 17.6872 6.08212C17.765 6.13415 17.8559 6.1618 17.9492 6.1618C18.0073 6.1618 18.0645 6.15149 18.1189 6.12993C18.3598 6.0366 18.4798 5.76417 18.3861 5.5232C18.0912 4.76408 17.6881 4.05184 17.1875 3.4062C16.6846 2.75775 16.0916 2.18763 15.4251 1.71172C15.345 1.65449 15.2512 1.62402 15.1533 1.62402C15.0019 1.62402 14.8589 1.69761 14.7712 1.82047C14.6986 1.9227 14.67 2.04692 14.6906 2.17024C14.7112 2.29408 14.7782 2.40194 14.8804 2.47459Z" fill="#6666FF"/>
<path d="M15.8683 0.854317C15.8683 0.854317 15.8683 0.854785 15.8687 0.854785C17.4723 1.96227 18.7163 3.58221 19.3725 5.41595C19.4391 5.60209 19.6163 5.72729 19.8136 5.72729C19.8675 5.72729 19.9205 5.71791 19.9716 5.69963C20.2148 5.6124 20.3419 5.34372 20.2551 5.1004C19.8942 4.09187 19.38 3.14896 18.7266 2.29657C18.0699 1.43995 17.2876 0.695369 16.4017 0.083013C16.3229 0.0286397 16.2306 0 16.1354 0C15.9812 0 15.8368 0.0754664 15.7492 0.20254C15.6784 0.305709 15.6512 0.429971 15.6737 0.553248C15.6967 0.676151 15.7656 0.783069 15.8683 0.854317Z" fill="#6666FF"/>
<path d="M2.8091 11.6438C2.75848 11.4319 2.57098 11.2832 2.35349 11.2832C2.31693 11.2832 2.28037 11.2874 2.24474 11.2959C1.9935 11.3559 1.83741 11.6091 1.89694 11.8609C2.08537 12.6556 2.38958 13.4184 2.80113 14.1283C3.20987 14.834 3.71845 15.4763 4.31186 16.0366C4.39905 16.1191 4.51342 16.1647 4.63342 16.1647C4.76419 16.1647 4.88513 16.1122 4.97466 16.0174C5.06043 15.9265 5.1059 15.8074 5.10215 15.6822C5.0984 15.557 5.04637 15.4407 4.95544 15.3544C3.88813 14.3473 3.14612 13.064 2.8091 11.6438Z" fill="#6666FF"/>
<path d="M3.83154 16.8934C2.37705 15.5914 1.34536 13.8298 0.926314 11.9337C0.903346 11.8287 0.844286 11.7345 0.760382 11.6678C0.651167 11.5811 0.504453 11.5469 0.367582 11.5773C0.245242 11.6041 0.141183 11.6772 0.0736851 11.7827C0.00618723 11.8882 -0.0158433 12.0139 0.0113433 12.1363C0.242899 13.1847 0.637105 14.188 1.18271 15.1188C1.72598 16.0443 2.40705 16.8766 3.20624 17.5921C3.29249 17.6689 3.40358 17.7116 3.51889 17.7116C3.65201 17.7116 3.77951 17.6549 3.8681 17.5555C4.04059 17.3628 4.02419 17.0655 3.83154 16.8934Z" fill="#6666FF"/>
</svg>
