<svg width="80" height="64" viewBox="0 0 80 64" fill="none" xmlns="http://www.w3.org/2000/svg">
<mask id="mask0_0_5717" style="mask-type:alpha" maskUnits="userSpaceOnUse" x="0" y="0" width="80" height="64">
<rect width="80" height="64" fill="#C4C4C4"/>
</mask>
<g mask="url(#mask0_0_5717)">
<path d="M70.1245 0H62.6246C61.5891 0 60.7496 0.839494 60.7496 1.87499V3.74997H45.3022C44.5282 1.56774 42.4441 0 39.9998 0C37.5554 0 35.4713 1.56774 34.6973 3.74997H19.2499V1.87499C19.2499 0.839494 18.4104 0 17.3749 0H9.87499C8.83949 0 8 0.839494 8 1.87499V9.37493C8 10.4104 8.83949 11.2499 9.87499 11.2499H17.3749C18.4104 11.2499 19.2499 10.4104 19.2499 9.37493V7.47494H27.047C20.2825 11.7592 16.1706 18.9967 15.6759 26.68C13.4672 27.4395 11.875 29.5365 11.875 31.9998C11.875 35.1014 14.3983 37.6247 17.4999 37.6247C20.6015 37.6247 23.1249 35.1014 23.1249 31.9998C23.1249 29.5773 21.5855 27.5075 19.4337 26.7173C20.0994 17.8865 26.4584 10.2807 34.9618 8.12269C35.8835 9.97417 37.7949 11.2499 39.9998 11.2499C42.2046 11.2499 44.116 9.97417 45.0377 8.12281C53.5413 10.2808 59.9001 17.8866 60.5658 26.7174C58.414 27.5075 56.8746 29.5773 56.8746 31.9998C56.8746 35.1014 59.398 37.6247 62.4996 37.6247C65.6012 37.6247 68.1245 35.1014 68.1245 31.9998C68.1245 29.5365 66.5323 27.4395 64.3236 26.68C63.8279 18.9814 59.7037 11.7758 52.9525 7.49994H60.7496V9.37493C60.7496 10.4104 61.5891 11.2499 62.6246 11.2499H70.1245C71.16 11.2499 71.9995 10.4104 71.9995 9.37493V1.87499C71.9995 0.839494 71.16 0 70.1245 0ZM15.4999 7.49994H11.75V3.74997H15.4999V7.49994ZM17.4999 33.8747C16.4661 33.8747 15.6249 33.0336 15.6249 31.9998C15.6249 30.9659 16.4661 30.1248 17.4999 30.1248C18.5338 30.1248 19.3749 30.9659 19.3749 31.9998C19.3749 33.0336 18.5338 33.8747 17.4999 33.8747ZM39.9998 7.49994C38.9659 7.49994 38.1248 6.65882 38.1248 5.62496C38.1248 4.59109 38.9659 3.74997 39.9998 3.74997C41.0336 3.74997 41.8747 4.59109 41.8747 5.62496C41.8747 6.65882 41.0336 7.49994 39.9998 7.49994ZM62.4996 30.1248C63.5334 30.1248 64.3746 30.9659 64.3746 31.9998C64.3746 33.0336 63.5334 33.8747 62.4996 33.8747C61.4657 33.8747 60.6246 33.0336 60.6246 31.9998C60.6246 30.9659 61.4657 30.1248 62.4996 30.1248ZM68.2495 7.49994H64.4996V3.74997H68.2495V7.49994Z" fill="#4DD0E2"/>
<path d="M56.56 38.4599L41.5601 15.9602C41.5596 15.9595 41.559 15.9587 41.5585 15.9579C41.5531 15.9499 41.5472 15.9422 41.5417 15.9344C41.516 15.897 41.4888 15.861 41.4606 15.8259C40.6705 14.8441 39.166 14.9104 38.4585 15.9344C38.453 15.9422 38.4471 15.9499 38.4417 15.9579C38.4412 15.9587 38.4406 15.9594 38.4401 15.9602L23.4402 38.4601C22.9444 39.2037 23.0425 40.1939 23.6745 40.8259C27.4153 44.5668 29.7963 49.4567 30.4449 54.6884C30.1538 54.9238 29.8727 55.1758 29.6062 55.4485C27.8451 57.25 26.8752 59.6211 26.8752 62.1249C26.8752 63.1604 27.7147 63.9999 28.7502 63.9999H51.25C52.2855 63.9999 53.125 63.1604 53.125 62.1249C53.125 59.6211 52.1551 57.25 50.3941 55.4484C50.1275 55.1757 49.8465 54.9237 49.5553 54.6883C50.2038 49.4563 52.5848 44.5664 56.3256 40.8259C56.9577 40.1939 57.0558 39.2035 56.56 38.4599ZM40.0001 37.6251C41.034 37.6251 41.8751 38.4662 41.8751 39.5C41.8751 40.5339 41.034 41.375 40.0001 41.375C38.9662 41.375 38.1251 40.5339 38.1251 39.5C38.1251 38.4662 38.9662 37.6251 40.0001 37.6251ZM30.9449 60.2499C31.725 58.0208 33.8398 56.3749 36.2501 56.3749H43.7501C46.1604 56.3749 48.2752 58.0208 49.0553 60.2499H30.9449ZM46.0307 52.9103C45.2932 52.7221 44.5287 52.6249 43.7501 52.6249H36.2501C35.4715 52.6249 34.707 52.7221 33.9695 52.9104C33.092 47.8569 30.8132 43.1329 27.3883 39.2982L38.1251 23.1929V34.1977C35.9428 34.9717 34.3751 37.0558 34.3751 39.5002C34.3751 42.6018 36.8985 45.1251 40.0001 45.1251C43.1017 45.1251 45.6251 42.6018 45.6251 39.5002C45.6251 37.0558 44.0574 34.9717 41.8751 34.1977V23.1929L52.612 39.2982C49.187 43.1325 46.908 47.8566 46.0307 52.9103Z" fill="#6666FF"/>
</g>
</svg>
