<svg width="80" height="64" viewBox="0 0 80 64" fill="none" xmlns="http://www.w3.org/2000/svg">
<mask id="mask0" mask-type="alpha" maskUnits="userSpaceOnUse" x="0" y="0" width="80" height="64">
<rect width="80" height="64" fill="#C4C4C4"/>
</mask>
<g mask="url(#mask0)">
<path d="M43.9738 63.9996H35.1045C32.9392 63.9996 31.0965 62.5196 30.6218 60.4023L29.4965 55.4076C27.6645 54.6316 25.9205 53.6183 24.2859 52.3836L19.4273 53.917C17.3419 54.5596 15.0753 53.677 14.03 51.8157L9.60866 44.1677C8.55 42.2744 8.90733 39.9411 10.4673 38.4744L14.2326 35.0131C14.118 33.9998 14.0593 32.9891 14.0593 31.9998C14.0593 31.0105 14.1153 29.9998 14.23 28.9865L10.4833 25.5412C8.90733 24.0585 8.54733 21.7279 9.59532 19.8585L14.0433 12.1653C15.078 10.3253 17.3419 9.4346 19.4219 10.0826L24.2859 11.6159C25.9205 10.3813 27.6672 9.36794 29.4965 8.59194L30.6218 3.59464C31.0965 1.47999 32.9392 0 35.1045 0H43.9738C46.1391 0 47.9817 1.47999 48.4564 3.59731L49.5817 8.59194C51.4137 9.36794 53.1577 10.3813 54.7924 11.6159L59.651 10.0826C61.731 9.43194 64.0003 10.3226 65.0483 12.1839L69.4696 19.8319C70.5283 21.7252 70.1709 24.0585 68.6109 25.5252L64.8456 28.9865C64.9603 29.9998 65.0163 31.0105 65.0163 31.9998C65.0163 32.9891 64.9603 33.9998 64.8456 35.0131L68.5949 38.4584C68.6003 38.4637 68.6056 38.4691 68.6109 38.4744C70.1709 39.9411 70.5309 42.2717 69.4829 44.141L65.035 51.8343C63.9976 53.6743 61.7336 54.565 59.6563 53.917L54.7897 52.381C53.155 53.6156 51.4084 54.629 49.5791 55.405L48.4537 60.4023C47.9817 62.5196 46.1391 63.9996 43.9738 63.9996ZM24.6966 48.157C25.1552 48.157 25.6059 48.3143 25.9712 48.613C27.7979 50.1197 29.7979 51.2797 31.9125 52.061C32.5472 52.2957 33.0218 52.837 33.1712 53.4983L34.5285 59.5249C34.5898 59.7996 34.8352 59.9996 35.1098 59.9996H43.9791C44.2538 59.9996 44.4964 59.7996 44.5604 59.5276L45.9177 53.501C46.0671 52.8396 46.5391 52.2983 47.1764 52.0637C49.2911 51.2823 51.291 50.1197 53.1177 48.6157C53.6404 48.1837 54.3417 48.045 54.9924 48.2503L60.8616 50.1037C61.139 50.189 61.4376 50.093 61.5683 49.8557L66.0163 42.1651C66.1496 41.9277 66.1016 41.6024 65.8856 41.3944L61.3843 37.2557C60.8936 36.8051 60.6616 36.1438 60.763 35.4851C60.939 34.3118 61.0296 33.1384 61.0296 31.9998C61.0296 30.8611 60.9416 29.6905 60.763 28.5145C60.6643 27.8558 60.8963 27.1945 61.3843 26.7438L65.8963 22.5945C66.0989 22.4025 66.1523 22.0745 66.0029 21.8105L61.5816 14.1652C61.4376 13.9119 61.1496 13.8132 60.8563 13.8986L54.995 15.7492C54.3444 15.9546 53.643 15.8159 53.1204 15.3839C51.2937 13.8772 49.2937 12.7172 47.1791 11.9359C46.5444 11.7013 46.0697 11.1599 45.9204 10.4986L44.5631 4.47197C44.4911 4.19997 44.2484 3.99997 43.9738 3.99997H35.1045C34.8298 3.99997 34.5872 4.19997 34.5232 4.47197L33.1658 10.5013C33.0192 11.1626 32.5445 11.7013 31.9098 11.9386C29.7952 12.7199 27.7952 13.8799 25.9685 15.3866C25.4459 15.8186 24.7446 15.9546 24.0939 15.7519L18.2246 13.8986C17.9473 13.8132 17.6486 13.9119 17.5179 14.1466L13.07 21.8345C12.934 22.0745 12.9873 22.4025 13.206 22.6105L17.7046 26.7438C18.1953 27.1945 18.4273 27.8558 18.3259 28.5145C18.1499 29.6878 18.0593 30.8611 18.0593 31.9998C18.0593 33.1384 18.1473 34.3091 18.3259 35.4851C18.4246 36.1438 18.1926 36.8051 17.7046 37.2557L13.1926 41.4051C12.99 41.5971 12.9366 41.9251 13.086 42.1891L17.5073 49.8343C17.6539 50.0903 17.9446 50.1943 18.2326 50.101L24.0939 48.2503C24.2912 48.1863 24.4939 48.157 24.6966 48.157Z" fill="#6666FF"/>
<path d="M37.5416 42.6665C37.3896 42.6665 37.2402 42.6505 37.0882 42.6158C36.0136 42.3678 35.3416 41.2931 35.5896 40.2185L39.5895 22.8853C39.8375 21.8053 40.9255 21.1413 41.9869 21.3839C43.0615 21.6319 43.7335 22.7066 43.4855 23.7813L39.4855 41.1145C39.2722 42.0425 38.4509 42.6665 37.5416 42.6665Z" fill="#4DD0E2"/>
<path d="M48.2062 40C47.6595 40 47.1155 39.7787 46.7182 39.3387C45.9795 38.5174 46.0462 37.2534 46.8675 36.512L51.8835 32.0001L46.8675 27.4881C46.0462 26.7494 45.9795 25.4854 46.7182 24.6614C47.4595 23.8428 48.7235 23.7761 49.5449 24.5121L56.2115 30.5121C56.6328 30.8934 56.8728 31.4347 56.8728 32.0001C56.8728 32.5654 56.6328 33.1067 56.2115 33.4881L49.5449 39.488C49.1609 39.832 48.6835 40 48.2062 40Z" fill="#4DD0E2"/>
<path d="M30.8732 40.0001C30.3958 40.0001 29.9185 39.8321 29.5345 39.4881L22.8679 33.4881C22.4465 33.1068 22.2065 32.5654 22.2065 32.0001C22.2065 31.4348 22.4465 30.8934 22.8679 30.5121L29.5345 24.5122C30.3558 23.7735 31.6171 23.8402 32.3611 24.6615C33.0998 25.4828 33.0331 26.7468 32.2118 27.4881L27.1958 32.0001L32.2118 36.5121C33.0331 37.2507 33.0998 38.5147 32.3611 39.3387C31.9638 39.7787 31.4198 40.0001 30.8732 40.0001Z" fill="#4DD0E2"/>
</g>
</svg>
